<svg width="30" height="30" viewBox="0 0 30 30" fill="none" xmlns="http://www.w3.org/2000/svg">
<path fill-rule="evenodd" clip-rule="evenodd" d="M14.2518 4.0164C13.815 4.07172 13.1906 4.21773 12.7975 4.35655C12.5648 4.43873 11.1377 5.05573 9.62611 5.72762C6.49375 7.11999 6.15587 7.31032 5.41307 8.10051C4.77762 8.77658 4.36068 9.52864 4.11504 10.4419C4.03412 10.7425 4.02233 11.2035 4.0052 14.7187C3.99176 17.4732 4.00403 18.784 4.04597 19.0756C4.29093 20.7777 5.39128 22.245 7.03919 23.0674C8.00231 23.5479 12.635 25.5669 13.0518 25.6876C13.7881 25.901 14.1322 25.9484 14.9657 25.9509C16.4226 25.9552 16.7121 25.8634 20.3488 24.2446C23.3967 22.8878 23.7383 22.6989 24.461 21.9701C25.272 21.1524 25.7275 20.2906 25.9145 19.2201C26.0285 18.568 26.0285 11.3982 25.9145 10.7461C25.7227 9.64837 25.211 8.70254 24.3694 7.89014C23.7169 7.26035 23.2871 7.02861 20.3196 5.70699C17.5232 4.46153 17.0288 4.26475 16.3143 4.11255C15.9279 4.03026 14.6229 3.96939 14.2518 4.0164ZM15.8446 5.75305C16.4883 5.86554 16.6336 5.92313 19.6004 7.242C22.1324 8.36763 22.9255 8.76389 22.8318 8.85649C22.8102 8.8778 22.1802 9.16781 21.4319 9.50103L20.0712 10.1068L16.0774 8.33294C13.8808 7.35728 12.0836 6.54213 12.0836 6.52151C12.0836 6.47767 12.9691 6.08136 13.4001 5.93228C14.1163 5.68462 15.058 5.61556 15.8446 5.75305ZM13.9213 9.2272C16.0954 10.1917 17.8923 10.9961 17.9142 11.0148C17.9739 11.0659 16.1683 11.8488 15.7794 11.9405C15.3043 12.0525 14.6164 12.0434 14.1413 11.919C13.8059 11.8311 7.26051 8.96373 7.1539 8.85797C7.07748 8.78218 7.65349 8.45975 8.73147 7.97497C9.33895 7.70177 9.86572 7.47717 9.90211 7.47596C9.93844 7.47469 11.7471 8.26276 13.9213 9.2272ZM9.30034 11.685C13.2688 13.4501 13.2281 13.4329 13.723 13.5508L14.1196 13.6453L14.1331 18.9151C14.1438 23.1141 14.1331 24.1847 14.0802 24.184C13.9588 24.1824 13.2772 23.9882 13.009 23.8789C11.927 23.4378 7.6024 21.4679 7.34909 21.3008C6.94088 21.0315 6.39306 20.4731 6.17005 20.0991C6.07348 19.9371 5.9307 19.63 5.85274 19.4166L5.71107 19.0287V15.0096V10.9904L5.83667 10.607C5.90579 10.3961 5.97411 10.2236 5.9885 10.2236C6.00288 10.2236 7.4932 10.8812 9.30034 11.685ZM24.145 10.6327L24.2733 11.0419V15.0353V19.0287L24.1316 19.4166C24.0537 19.63 23.9109 19.9373 23.8143 20.0996C23.5664 20.5163 22.9637 21.1115 22.5281 21.37C21.9817 21.6942 16.8285 23.9658 16.3719 24.0837C16.1564 24.1394 15.948 24.1849 15.9089 24.1849C15.8497 24.1849 15.8401 23.301 15.8513 18.9176L15.8648 13.6503L16.3407 13.5296C16.6792 13.4437 17.8479 12.9493 20.3863 11.8181C22.3496 10.9432 23.9696 10.2265 23.9863 10.2255C24.003 10.2244 24.0744 10.4077 24.145 10.6327Z" fill="white"/>
</svg>
