<svg width="30" height="30" viewBox="0 0 30 30" fill="none" xmlns="http://www.w3.org/2000/svg">
<path fill-rule="evenodd" clip-rule="evenodd" d="M8.19349 2.05823C7.39292 2.21952 6.66953 2.62412 6.089 3.23525C5.51414 3.84042 5.16754 4.54509 5.04178 5.36424C5.0057 5.59926 4.99363 8.55483 5.00309 14.8231C5.01817 24.7845 4.99535 23.9853 5.28675 24.7641C5.61339 25.6372 6.572 26.5958 7.44506 26.9224C8.21552 27.2107 7.68999 27.1903 14.7742 27.2073C19.5665 27.2189 21.3766 27.2078 21.6489 27.1653C23.0792 26.9422 24.3267 25.8938 24.7799 24.534C24.9303 24.0827 25.0314 23.3798 24.9829 23.1233C24.8613 22.4815 24.1641 22.1124 23.5943 22.3883C23.3347 22.5139 23.0912 22.8134 23.059 23.0465C22.928 23.9967 22.8206 24.2761 22.44 24.6567C22.2927 24.804 22.0537 24.9712 21.8579 25.064L21.5257 25.2213H14.996H8.46626L8.13706 25.0654C7.67895 24.8483 7.39356 24.569 7.1719 24.1204L6.98783 23.748L6.97472 14.7763C6.9659 8.72697 6.97822 5.72438 7.01267 5.55826C7.14287 4.92997 7.54909 4.41573 8.13406 4.13862L8.46626 3.98127L13.3943 3.96638C16.9662 3.95559 18.3767 3.96688 18.5196 4.00748C18.6846 4.05435 19.0528 4.39808 20.7794 6.11681C22.1554 7.48657 22.8728 8.23579 22.9344 8.36727C23.0226 8.55577 23.0266 8.78315 23.0277 13.5632L23.0288 18.562L23.1339 18.779C23.3349 19.1943 23.8351 19.4163 24.2736 19.285C24.5646 19.1978 24.7381 19.0501 24.8771 18.771L25 18.5244V13.5142C25 10.3681 24.9816 8.40516 24.9505 8.23845C24.8856 7.89062 24.7272 7.49569 24.5178 7.15989C24.2754 6.77106 20.2973 2.78665 19.8588 2.49353C19.6739 2.36983 19.3634 2.21046 19.1689 2.13934L18.8152 2.01003L13.6654 2.0017C9.57582 1.99505 8.44926 2.00668 8.19349 2.05823Z" fill="white"/>
</svg>
