<svg width="30" height="30" viewBox="0 0 30 30" fill="none" xmlns="http://www.w3.org/2000/svg">
<path fill-rule="evenodd" clip-rule="evenodd" d="M13.3367 4.03147C12.8106 4.15852 12.3113 4.60098 12.1372 5.09439C12.103 5.19139 12.0196 5.59917 11.9519 6.00059C11.7873 6.97707 11.6391 7.2533 11.1522 7.49151C10.957 7.58706 10.858 7.60809 10.6146 7.6058C10.3534 7.60334 10.2296 7.56951 9.61688 7.33317C8.91973 7.06423 8.91591 7.06334 8.47227 7.0616C8.0608 7.05999 8.00629 7.06974 7.75159 7.19073C7.59995 7.26271 7.38981 7.40922 7.28425 7.51652C7.0588 7.74569 5.19516 10.9406 5.06662 11.3183C4.9564 11.6422 4.98616 12.1537 5.13373 12.4716C5.2891 12.8062 5.44019 12.9718 6.04196 13.4666C6.34104 13.7125 6.62936 13.9684 6.68265 14.0352C7.04947 14.4951 7.05465 15.1716 6.69486 15.6289C6.64827 15.6882 6.35669 15.9462 6.04688 16.2024C5.43438 16.7089 5.2955 16.8618 5.13441 17.2064C4.98654 17.5228 4.95611 18.0349 5.06595 18.3576C5.10961 18.4858 5.58284 19.3493 6.11759 20.2763C7.17928 22.117 7.28721 22.263 7.75159 22.4858C8.0073 22.6086 8.05919 22.618 8.47227 22.6164C8.91591 22.6146 8.91973 22.6137 9.61688 22.3448C10.2296 22.1085 10.3534 22.0746 10.6146 22.0722C11.1089 22.0675 11.5063 22.3151 11.7401 22.7734C11.7939 22.879 11.8773 23.2345 11.9519 23.6774C12.09 24.4961 12.1441 24.6796 12.3258 24.9436C12.5042 25.2029 12.7272 25.3865 13.0487 25.5389L13.3263 25.6704L15.3792 25.6829C16.6769 25.6908 17.5069 25.6794 17.6357 25.6518C18.1517 25.5411 18.562 25.2197 18.7935 24.7451C18.9151 24.4956 18.964 24.307 19.0658 23.6948C19.2039 22.865 19.2972 22.6197 19.5638 22.3856C19.8168 22.1634 20.0645 22.0716 20.4059 22.0734C20.667 22.0748 20.7868 22.1074 21.4021 22.3448C22.0993 22.6137 22.1031 22.6146 22.5468 22.6164C22.9598 22.618 23.0117 22.6086 23.2674 22.4858C23.7311 22.2633 23.8406 22.1156 24.8891 20.2975C25.4171 19.3821 25.8827 18.5569 25.9238 18.4636C25.9785 18.3395 25.9989 18.1803 25.9999 17.8701C26.0012 17.4993 25.9875 17.4169 25.8907 17.213C25.7278 16.8697 25.586 16.7146 24.9582 16.1935C24.3534 15.6915 24.1942 15.5018 24.0936 15.1634C24.0145 14.8966 24.0145 14.7814 24.0936 14.5146C24.1951 14.1729 24.3603 13.9758 24.9575 13.4839C25.5783 12.9726 25.7269 12.8103 25.8907 12.465C25.9875 12.2611 26.0012 12.1786 25.9999 11.8079C25.9989 11.4977 25.9785 11.3385 25.9238 11.2144C25.8827 11.1211 25.4171 10.2958 24.8891 9.38046C23.8406 7.56239 23.7311 7.41469 23.2674 7.19213C23.0117 7.0694 22.9598 7.05999 22.5468 7.0616C22.1031 7.06334 22.0993 7.06423 21.4021 7.33317C20.7894 7.56951 20.6657 7.60334 20.4044 7.6058C19.9102 7.61046 19.5128 7.36289 19.279 6.9047C19.2253 6.79952 19.142 6.44474 19.0683 6.00788C19.0012 5.61031 18.9133 5.19338 18.873 5.08129C18.7267 4.67436 18.3262 4.26896 17.8956 4.09192C17.7042 4.01324 17.5743 4.00807 15.5943 4.00078C14.4402 3.9965 13.4242 4.01032 13.3367 4.03147ZM17.2901 5.69268C17.2901 5.69853 17.3467 6.0306 17.4158 6.43066C17.5977 7.48235 17.8078 7.94286 18.3435 8.46383C18.9434 9.04725 19.811 9.37215 20.5967 9.30762C21.0066 9.27396 21.123 9.24276 21.901 8.9583C22.2569 8.82816 22.5541 8.7293 22.5613 8.73862C22.5686 8.74795 22.9697 9.44087 23.4526 10.2785C24.1526 11.4924 24.3196 11.8113 24.276 11.8502C24.2459 11.8771 24.007 12.0754 23.7452 12.2909C23.1379 12.7907 22.8908 13.0699 22.6763 13.4987C22.4398 13.9713 22.3626 14.3014 22.3626 14.839C22.3626 15.3766 22.4398 15.7067 22.6763 16.1792C22.8908 16.6081 23.1379 16.8873 23.7452 17.3871C24.007 17.6026 24.2458 17.8008 24.2758 17.8276C24.3191 17.8662 24.1502 18.1886 23.4523 19.3993C22.9693 20.237 22.5683 20.93 22.5612 20.9393C22.554 20.9487 22.2569 20.8498 21.901 20.7197C21.123 20.4352 21.0066 20.404 20.5967 20.3703C19.8137 20.306 18.9375 20.6331 18.3432 21.2116C17.8104 21.7303 17.5972 22.1982 17.4158 23.2473C17.3467 23.6474 17.2901 23.9795 17.2901 23.9853C17.29 23.9911 16.4888 23.9959 15.5095 23.9959C14.5302 23.9959 13.729 23.9911 13.729 23.9853C13.7289 23.9795 13.6723 23.6474 13.6032 23.2473C13.4217 22.1977 13.2175 21.7489 12.6803 21.2191C12.0887 20.6356 11.2108 20.3056 10.4223 20.3703C10.0124 20.404 9.89604 20.4352 9.11804 20.7197C8.76211 20.8498 8.46494 20.9487 8.45769 20.9393C8.32915 20.7739 6.69842 17.8686 6.72203 17.8471C6.74034 17.8305 6.98427 17.6274 7.26407 17.3958C7.8563 16.9056 8.08141 16.6622 8.29426 16.2816C8.54858 15.8268 8.65244 15.4084 8.65244 14.839C8.65244 14.2695 8.54858 13.8511 8.29426 13.3964C8.08141 13.0158 7.8563 12.7723 7.26407 12.2822C6.98427 12.0506 6.74034 11.8475 6.72203 11.8309C6.69842 11.8094 8.32915 8.90408 8.45769 8.73862C8.46494 8.7293 8.76211 8.82816 9.11804 8.9583C9.99566 9.27922 10.0806 9.29893 10.5919 9.30067C11.123 9.30245 11.4479 9.22703 11.9273 8.99065C12.3149 8.7995 12.6039 8.57304 12.8884 8.23758C13.2747 7.78207 13.4572 7.32333 13.6014 6.44516C13.6493 6.15371 13.6991 5.86281 13.7121 5.79867L13.7357 5.68209H15.5129C16.4903 5.68209 17.29 5.68683 17.2901 5.69268ZM14.9796 10.6868C14.385 10.7659 13.6906 11.0334 13.1393 11.3958C12.8284 11.6003 12.2653 12.1663 12.0553 12.4855C11.0897 13.9532 11.0897 15.7247 12.0553 17.1924C12.2653 17.5117 12.8284 18.0777 13.1393 18.2821C14.7547 19.3441 16.7336 19.2508 18.1884 18.044C19.4631 16.9866 19.9983 15.1973 19.5079 13.6327C19.0347 12.1234 17.8004 11.0122 16.2812 10.7279C15.9338 10.6629 15.3077 10.6431 14.9796 10.6868ZM16.2512 12.4684C16.9939 12.6992 17.646 13.3557 17.89 14.1183C18.013 14.5031 18.013 15.1749 17.89 15.5597C17.6436 16.3299 17.0015 16.9717 16.2302 17.2187C15.8405 17.3434 15.2135 17.3445 14.81 17.221C14.0268 16.9814 13.3791 16.3412 13.1291 15.5597C13.0058 15.1741 13.006 14.5027 13.1295 14.1183C13.4257 13.1967 14.271 12.4858 15.2128 12.3663C15.4645 12.3343 15.9839 12.3854 16.2512 12.4684Z" fill="white"/>
</svg>
