<svg width="30" height="30" viewBox="0 0 30 30" fill="none" xmlns="http://www.w3.org/2000/svg">
<path fill-rule="evenodd" clip-rule="evenodd" d="M14.1414 3.04871C13.0375 3.23185 12.2295 3.60805 11.5348 4.26238C10.3873 5.34316 9.91707 6.7268 9.92232 9.00704C9.92627 10.7185 10.1947 12.0014 10.7876 13.1424C11.5674 14.6432 12.7785 15.463 14.4687 15.6344C15.3932 15.7282 16.3129 15.5805 17.0998 15.2119C18.0121 14.7846 18.7532 14.0323 19.2655 13.0133C19.4662 12.6142 19.7494 11.7477 19.861 11.191C20.1062 9.96938 20.118 8.0904 19.8879 6.94511C19.53 5.16476 18.4321 3.85436 16.8311 3.29682C16.0951 3.04048 14.8715 2.9276 14.1414 3.04871ZM16.0725 4.45084C17.5837 4.85219 18.4454 5.92741 18.6753 7.69876C18.7641 8.38279 18.7522 9.88386 18.6531 10.5014C18.3129 12.6206 17.4529 13.829 15.9976 14.2325C15.7776 14.2935 15.5273 14.3142 14.992 14.3157C14.1918 14.3178 13.7989 14.237 13.2694 13.961C12.8792 13.7576 12.2672 13.1309 12.0059 12.6671C11.4524 11.6847 11.1802 10.2527 11.2358 8.61622C11.2912 6.98571 11.6028 6.05312 12.3414 5.30729C12.8216 4.8224 13.397 4.52712 14.1414 4.38358C14.6152 4.29222 15.605 4.3267 16.0725 4.45084ZM11.3578 15.7128C11.2703 15.7593 11.0021 15.9175 10.7619 16.0644C9.81532 16.6427 8.62879 17.1692 7.49738 17.513C6.80986 17.7219 6.43265 17.9318 6.04675 18.3206C5.31002 19.0626 5.00596 20.0635 5.00012 21.7662C4.99548 23.1186 5.12031 23.8453 5.40322 24.1121C5.61509 24.3119 6.60994 24.8102 7.49738 25.1609C11.5064 26.7455 16.5456 26.9587 20.8394 25.7255C22.3969 25.2782 24.3127 24.4391 24.6483 24.0572C24.9772 23.6829 25.1082 21.7859 24.8987 20.4309C24.7214 19.2845 24.2556 18.4554 23.5185 17.9742C23.189 17.7591 22.9057 17.6421 22.119 17.3966C21.1697 17.1002 20.1405 16.6259 19.1761 16.0402C18.7507 15.7819 18.4974 15.6569 18.3714 15.6431C17.8833 15.5897 17.5155 16.1168 17.7281 16.565C17.9351 17.001 20.1319 18.148 21.7049 18.6412C22.0716 18.7562 22.4796 18.9034 22.6117 18.9683C23.0734 19.1953 23.4168 19.7093 23.5779 20.4142C23.6398 20.6854 23.6551 20.9791 23.6529 21.8582C23.6515 22.4651 23.6306 23.0215 23.6067 23.0947C23.5741 23.1941 23.4881 23.2665 23.2662 23.3811C21.4684 24.31 19.0203 24.9577 16.5806 25.1499C15.5755 25.2291 13.3806 25.1789 12.4631 25.0557C10.3107 24.7668 8.37218 24.2072 6.81528 23.4253L6.39982 23.2166L6.36239 22.9972C6.34179 22.8765 6.32639 22.3226 6.32818 21.7662C6.33182 20.6405 6.38354 20.2881 6.61886 19.7852C6.87786 19.2318 7.22036 18.96 7.91119 18.7599C8.66957 18.5401 9.49614 18.2068 10.3711 17.7677C11.5207 17.1908 12.0994 16.8219 12.2361 16.5787C12.5473 16.0249 11.9247 15.411 11.3578 15.7128Z" fill="white"/>
</svg>
