<svg width="100" height="95" viewBox="0 0 100 95" fill="none" xmlns="http://www.w3.org/2000/svg">
<path fill-rule="evenodd" clip-rule="evenodd" d="M28.4383 50.0207C26.3118 50.7262 24.3782 52.2964 23.7376 53.8377L23.462 54.5006L22.8164 53.8997C19.7793 51.0725 13.6138 51.4859 9.88139 54.7673C8.54087 55.9456 6.97345 58.3305 6.37305 60.1051C5.43079 62.8905 5.04222 67.0304 5.39764 70.4969C5.89062 75.3053 7.19799 78.8632 9.71283 82.2401C14.1802 88.2388 20.7142 92.3217 28.546 94.0087C30.9368 94.5236 31.5301 94.5652 36.5111 94.5669C43.4157 94.5693 46.7186 94.0939 53.6528 92.0994C57.3416 91.0386 59.0435 90.3931 58.9432 90.0932C58.8257 89.7414 55.4739 88.9682 51.3651 88.3448C42.2433 86.9609 36.6967 84.8195 33.6607 81.5092C32.0842 79.7904 31.5785 78.6328 31.4963 76.5551C31.4136 74.4704 31.7775 73.6571 33.1554 72.8462L34.0839 72.2998L33.7369 72.9687C33.3053 73.8002 33.2878 75.4147 33.7016 76.2121C34.1386 77.0545 35.3586 78.0703 36.3079 78.3825C36.7863 78.5399 37.7033 78.6041 38.5797 78.5416C42.8458 78.2374 45.5639 74.5291 44.8053 70.0477C44.3065 67.101 41.7953 64.0371 39.0469 63.022C38.4809 62.813 37.9873 62.6206 37.9498 62.5942C37.9121 62.5678 38.1526 62.03 38.4837 61.3987C39.0406 60.3378 39.0865 60.065 39.0903 57.7841C39.094 55.5104 39.0471 55.221 38.4899 54.0904C37.6926 52.4721 36.2442 51.0193 34.7474 50.3364C33.1096 49.5893 30.1801 49.4425 28.4383 50.0207ZM34.3506 52.3865C35.5979 53.0526 36.7202 54.4221 37.0674 55.7015C37.3871 56.8801 37.2157 59.4212 36.7572 60.302C36.1262 61.513 35.1157 62.5037 34.5112 62.5037C33.471 62.5037 30.7037 63.4002 29.043 64.275C26.2003 65.7724 24.355 67.8831 23.3458 70.7917C22.5477 73.0912 22.5073 76.2082 23.2444 78.5931C24.3089 82.0367 26.6255 85.2048 29.4071 87.0212C30.8412 87.9578 30.5002 87.9065 27.7981 86.7792C22.7081 84.656 19.0659 80.9572 17.5191 76.3406C17.0169 74.8417 16.9428 74.2713 16.9347 71.8356C16.9265 69.4329 16.9917 68.8833 17.4053 67.8668C18.0489 66.2849 18.8627 65.426 20.0335 65.0926C22.1635 64.4863 24.2913 62.5273 24.7093 60.7875C24.9113 59.947 24.9627 59.9255 25.7155 60.3681C27.3606 61.3354 29.5885 61.0868 31.0477 59.773C32.5694 58.403 32.8943 57.2047 32.0971 55.9017C31.8608 55.5153 31.4009 55.0968 31.0754 54.9717C30.3151 54.6795 29.0144 54.8503 28.2687 55.34L27.6849 55.7236L28.5051 55.895C29.7956 56.1649 30.1605 56.4393 30.1605 57.1397C30.1605 58.7667 27.8409 59.2639 26.2109 57.9862C25.1136 57.1262 25.2004 55.0522 26.3883 53.7418C28.2814 51.6536 31.8438 51.0472 34.3506 52.3865ZM19.6663 54.4433C21.5202 55.1026 22.6046 56.4933 22.7947 58.4562C22.9273 59.8243 22.5398 60.8358 21.5368 61.7387C20.6542 62.5333 20.124 62.732 20.3328 62.1896C20.5267 61.6859 19.8572 59.4649 19.2454 58.5822C18.6661 57.7462 16.8479 56.2825 16.3887 56.2825C16.246 56.2825 16.3683 56.5654 16.6604 56.9112C17.5344 57.9465 18.1869 59.5235 18.2819 60.8302C18.4005 62.4647 18.2397 62.9975 17.323 64.0088C15.781 65.7098 13.76 65.5761 13.0511 63.7265C12.3372 61.8636 13.5454 60.3921 15.1055 61.2241C15.3815 61.3714 15.5242 61.6786 15.5289 62.1358L15.5362 62.8255L15.9773 62.2971C16.5566 61.6033 16.3821 60.6596 15.5319 59.8873C14.1718 58.6519 12.2494 59.0174 11.2615 60.6991C10.8536 61.394 10.7806 61.7859 10.8376 62.9772C10.894 64.1594 11.0211 64.5803 11.5487 65.3369C12.2533 66.3474 13.7301 67.2233 14.7294 67.2233C15.1828 67.2233 15.3203 67.3074 15.2338 67.5315C14.7679 68.7417 14.5824 69.9767 14.5873 71.8356C14.6097 80.2353 20.4303 86.7916 30.1371 89.3509C31.9469 89.828 38.7715 90.1957 38.7715 89.816C38.7715 89.5719 37.7658 89.0727 35.3613 88.1232C28.6282 85.4648 24.922 80.6159 24.9487 74.5006C24.9608 71.7354 25.8298 69.5742 27.6545 67.7709C30.5497 64.91 35.8126 63.5712 38.6762 64.9673C40.1426 65.6823 41.4495 66.9974 42.2355 68.549C43.6299 71.3018 42.7192 74.769 40.2735 76.0192C37.8588 77.2536 35.1118 76.3425 35.1118 74.3075C35.1118 73.2544 35.5794 72.8977 37.4622 72.515L38.7862 72.246L38.2945 71.7976C36.3269 70.0039 32.964 70.0827 30.9088 71.9705C29.6594 73.1182 29.184 74.377 29.2185 76.4479C29.2867 80.5653 31.9643 83.8947 37.3247 86.5276C41.4308 88.5443 46.9894 89.916 52.8787 90.3659C54.1775 90.465 54.9725 90.5598 54.6453 90.5763C54.318 90.593 51.9446 90.9835 49.371 91.4443C42.7883 92.6225 40.5312 92.8561 35.8653 92.8415C29.8251 92.8228 26.2162 92.0664 21.6432 89.8606C14.8906 86.6037 9.47 80.6363 7.99278 74.8336C6.65485 69.577 7.00488 62.8647 8.79877 59.3783C9.47818 58.0574 10.8189 56.4646 11.8481 55.7547C13.9202 54.3262 17.6007 53.7086 19.6663 54.4433Z" fill="white" fill-opacity="0.25"/>
<path fill-rule="evenodd" clip-rule="evenodd" d="M67.5639 31.0554C69.7852 31.2771 72.0124 32.389 72.9784 33.7587L73.3938 34.3477L73.8862 33.6158C76.2021 30.1724 82.2778 29.2147 86.6329 31.6068C88.197 32.4658 90.2508 34.4576 91.2299 36.0648C92.7664 38.5875 94.0682 42.5606 94.4975 46.038C95.093 50.8615 94.619 54.6389 92.9326 58.5058C89.937 65.375 84.5079 70.8226 77.2843 74.2081C75.079 75.2414 74.5126 75.4134 69.679 76.5163C62.979 78.045 59.6674 78.3091 52.4925 77.8866C48.6758 77.6619 46.8799 77.4053 46.9103 77.0891C46.9457 76.7181 50.0259 75.2191 53.874 73.6995C62.4174 70.326 67.3218 67.0003 69.5288 63.0834C70.6748 61.0497 70.907 59.8029 70.5228 57.7476C70.1374 55.6853 69.6026 54.9683 68.0842 54.4779L67.0612 54.1475L67.5473 54.7266C68.1519 55.4464 68.5294 57.0255 68.306 57.8988C68.0701 58.8214 67.113 60.0871 66.2614 60.603C65.8324 60.8631 64.9567 61.1287 64.0923 61.2613C59.8842 61.9061 56.4182 58.8712 56.1535 54.3096C55.9794 51.3101 57.732 47.7509 60.1726 46.148C60.6751 45.8181 61.1112 45.5203 61.1417 45.4861C61.1723 45.4519 60.8188 44.9777 60.3565 44.4319C59.5791 43.5149 59.4737 43.2575 58.9605 41.0221C58.4491 38.7936 58.43 38.4994 58.7181 37.2678C59.1305 35.5048 60.2116 33.7602 61.5117 32.7598C62.9343 31.6651 65.7444 30.8736 67.5639 31.0554ZM62.3546 34.682C61.2929 35.6109 60.5097 37.2017 60.4585 38.5329C60.4115 39.7592 61.1454 42.2127 61.7871 42.975C62.6699 44.0229 63.8718 44.7708 64.4585 44.6372C65.468 44.4072 68.3538 44.6744 70.1608 45.165C73.254 46.0047 75.5163 47.6663 77.1453 50.2949C78.4334 52.373 79.1688 55.4203 78.9862 57.9215C78.7222 61.5332 77.1817 65.1515 74.8879 67.5474C73.7053 68.7828 74.0248 68.6571 76.3953 66.9544C80.8608 63.7475 83.5693 59.3157 84.0392 54.4473C84.1918 52.8667 84.1363 52.291 83.6002 49.901C83.0715 47.5435 82.8854 47.019 82.2571 46.1139C81.2791 44.7052 80.2975 44.0429 79.0868 43.9749C76.8844 43.8513 74.3819 42.4009 73.5876 40.7875C73.2039 40.0081 73.1491 39.9984 72.5174 40.5988C71.1369 41.9109 68.9193 42.1596 67.2098 41.1941C65.427 40.1873 64.8441 39.0842 65.3267 37.6304C65.4698 37.1993 65.8225 36.6873 66.1105 36.4927C66.7831 36.0381 68.0835 35.918 68.9166 36.2334L69.5689 36.4804L68.8112 36.8298C67.619 37.3797 67.3262 37.7294 67.4826 38.4161C67.846 40.0113 70.2082 39.986 71.5047 38.3729C72.3775 37.2871 71.83 35.2728 70.3845 34.2506C68.0809 32.6218 64.4883 32.8147 62.3546 34.682ZM77.0647 33.4524C75.4127 34.5086 74.671 36.1119 74.925 38.0785C75.1018 39.4492 75.7038 40.3552 76.8788 41.0188C77.9129 41.6028 78.4718 41.6803 78.148 41.1947C77.8473 40.7438 78.0009 38.4181 78.3975 37.4174C78.773 36.4696 80.2106 34.6325 80.6562 34.531C80.7947 34.4995 80.7392 34.8039 80.533 35.2076C79.916 36.4159 79.635 38.1063 79.8347 39.4084C80.0847 41.0372 80.3598 41.5241 81.4752 42.313C83.3516 43.6399 85.283 43.062 85.5579 41.0918C85.8346 39.1074 84.3335 37.9318 83.0053 39.0924C82.7704 39.2979 82.7005 39.6307 82.798 40.0799L82.9449 40.7578L82.3988 40.3372C81.6817 39.7851 81.6403 38.8212 82.2928 37.8761C83.3368 36.3641 85.2841 36.2975 86.6184 37.7279C87.1695 38.319 87.3279 38.6872 87.5386 39.8678C87.7479 41.0394 87.7187 41.4801 87.3756 42.3386C86.9175 43.4851 85.68 44.6704 84.7102 44.8913C84.2702 44.9915 84.1555 45.1044 84.2895 45.3051C85.0119 46.3886 85.4679 47.5584 85.8782 49.3821C87.7326 57.6227 83.5483 65.3378 74.6999 69.993C73.0501 70.8609 66.5091 72.7302 66.4243 72.3579C66.3698 72.1185 67.2343 71.4067 69.3556 69.9442C75.2962 65.8492 77.8099 60.2757 76.4181 54.2857C75.7888 51.5772 74.4627 49.6504 72.2891 48.2857C68.8404 46.1207 63.434 45.9715 60.9668 47.9734C59.7034 48.9987 58.7287 50.5769 58.3126 52.2721C57.5742 55.2793 59.2324 58.4775 61.8851 59.1626C64.5042 59.839 66.9665 58.3385 66.512 56.3432C66.2768 55.3107 65.7433 55.0643 63.8307 55.1053L62.4858 55.1342L62.8628 54.5859C64.3717 52.3923 67.6527 51.7261 70.0689 53.1227C71.5378 53.9717 72.2803 55.1009 72.7094 57.1389C73.5628 61.1909 71.7079 65.0473 67.0939 68.8138C63.5595 71.6989 58.4714 74.2727 52.8565 76.0157C51.6183 76.4 50.8679 76.6687 51.1892 76.6126C51.5105 76.5566 53.901 76.4147 56.5015 76.2976C63.1529 75.9975 65.3956 75.7276 69.9204 74.6817C75.778 73.3281 79.1114 71.7887 83.0567 68.615C88.8824 63.9289 92.8101 56.8796 92.9476 50.8637C93.072 45.414 91.2331 38.9102 88.7134 35.8884C87.7591 34.7436 86.1022 33.4783 84.9448 33.0098C82.6149 32.0672 78.9051 32.2754 77.0647 33.4524Z" fill="white" fill-opacity="0.25"/>
<path fill-rule="evenodd" clip-rule="evenodd" d="M54.0296 45.0226C54.7111 42.8903 54.5792 40.4024 53.7089 38.9745L53.3347 38.3604L54.2014 38.1948C58.2789 37.4163 61.5762 32.1986 61.1187 27.2482C60.9545 25.4703 59.9474 22.7963 58.8646 21.263C57.165 18.8564 54.0429 16.0958 51.0275 14.3333C46.845 11.8886 43.1949 10.84 38.9802 10.8724C31.4929 10.93 24.339 13.787 18.3601 19.1071C16.535 20.7313 16.1518 21.1853 13.2162 25.2021C9.14712 30.7701 7.58626 33.7154 5.11595 40.4877C3.80173 44.0903 3.32167 45.8447 3.62352 45.941C3.97754 46.0542 6.57781 43.8075 9.50275 40.8618C15.9963 34.3219 20.997 31.1137 25.4649 30.6216C27.7848 30.366 29.0197 30.6423 30.7499 31.8042C32.4861 32.9698 32.9301 33.744 32.7748 35.3349L32.6701 36.4068L32.3331 35.7315C31.9143 34.8918 30.6177 33.9234 29.7285 33.7858C28.7892 33.6403 27.2483 34.0239 26.4364 34.6052C26.0272 34.898 25.4351 35.5998 24.9694 36.3436C22.7026 39.9646 24.1031 44.3491 28.1775 46.3863C30.8566 47.7258 34.8158 47.5113 37.2565 45.8944C37.7591 45.5614 38.2056 45.277 38.249 45.2624C38.2926 45.2476 38.5863 45.7595 38.9023 46.3997C39.4329 47.4761 39.6268 47.6743 41.4707 49.0257C43.309 50.3728 43.5709 50.506 44.8142 50.7249C46.594 51.0383 48.6231 50.7288 50.0575 49.9251C51.6271 49.0456 53.4715 46.7694 54.0296 45.0226ZM48.6319 48.3932C47.3579 49.0056 45.5883 49.1013 44.3481 48.625C43.2058 48.1862 41.2499 46.5459 40.807 45.6554C40.1984 44.4305 39.9918 43.0298 40.3479 42.5422C40.9606 41.7032 41.8651 38.941 42.1352 37.0843C42.5977 33.9062 41.9762 31.17 40.2163 28.6366C38.8251 26.6336 36.3258 24.7584 33.9612 23.9432C30.5467 22.7663 26.6177 22.7622 23.5089 23.9322C21.9059 24.5354 22.1483 24.2906 24.6525 22.7774C29.3695 19.9267 34.509 19.1752 39.157 20.6566C40.6662 21.1375 41.1715 21.4149 43.1479 22.8481C45.0976 24.2618 45.5041 24.6393 46.0832 25.5737C46.9845 27.028 47.2005 28.1922 46.7806 29.3337C46.0166 31.4102 46.349 34.2845 47.511 35.6502C48.0724 36.3099 48.0595 36.3641 47.2578 36.7097C45.5057 37.465 44.3946 39.409 44.5985 41.3626C44.811 43.3999 45.5896 44.3703 47.1139 44.4976C47.5659 44.5353 48.1756 44.4118 48.4685 44.2231C49.1529 43.7825 49.7809 42.6324 49.8237 41.7414L49.8572 41.0437L49.2353 41.604C48.2566 42.4855 47.8196 42.6176 47.2526 42.2036C45.9357 41.2419 46.8995 39.0769 48.894 38.5173C50.2365 38.1406 51.8642 39.4366 52.2251 41.1693C52.8002 43.9308 51.1926 47.1628 48.6319 48.3932ZM55.617 35.3325C53.9912 36.4383 52.2267 36.4908 50.5259 35.4838C49.3404 34.7821 48.7499 33.8716 48.6099 32.5289C48.4866 31.3472 48.6381 30.8021 48.9541 31.2911C49.2476 31.7453 51.4397 32.5181 52.5147 32.5465C53.5326 32.5734 55.7885 31.972 56.059 31.6016C56.1431 31.4864 55.842 31.4178 55.39 31.449C54.0371 31.5421 52.3763 31.1362 51.2626 30.4404C49.8697 29.5699 49.5331 29.1252 49.2545 27.788C48.786 25.5387 50.0847 23.9875 51.9995 24.509C53.9279 25.0344 54.4073 26.8787 52.8149 27.6454C52.5331 27.7809 52.2003 27.7144 51.8275 27.448L51.2649 27.0462L51.4328 27.7143C51.6531 28.5917 52.5198 29.0087 53.6457 28.7795C55.4469 28.4127 56.2835 26.646 55.5042 24.855C55.182 24.1152 54.9078 23.8247 53.9099 23.1665C52.9197 22.5131 52.5042 22.3668 51.5809 22.3451C50.348 22.3162 48.7691 22.9897 48.1804 23.7957C47.9133 24.1614 47.7642 24.2227 47.6338 24.0204C46.9286 22.9292 46.0383 22.0495 44.5307 20.9547C37.7183 16.0075 28.9826 16.8269 21.1931 23.1439C19.7408 24.3217 15.423 29.6093 15.7303 29.8338C15.9279 29.9781 16.9245 29.4619 19.1094 28.0837C25.2275 24.2239 31.3356 24.1007 36.2699 27.7371C38.5011 29.3815 39.7385 31.36 40.1233 33.8978C40.7336 37.9243 38.7172 42.9609 35.9003 44.4455C34.4577 45.2057 32.6233 45.4826 30.9044 45.1993C27.8548 44.6968 25.5847 41.9128 26.0134 39.2009C26.4366 36.5234 28.7922 34.8462 30.4394 36.0492C31.2919 36.6717 31.3052 37.2597 30.5059 39.0047L29.9438 40.2316L30.5963 40.1001C33.2073 39.5732 35.1245 36.8141 34.807 34.0404C34.614 32.3541 33.8751 31.2265 32.1785 30.0302C28.8055 27.6514 24.5332 27.8431 19.2445 30.6106C15.1932 32.7306 10.8085 36.4035 6.9752 40.888C6.12993 41.8771 5.58486 42.4623 5.76425 42.1886C5.94346 41.9148 7.02551 39.7695 8.16854 37.4212C11.0925 31.4149 12.233 29.4561 14.9933 25.7011C18.5665 20.8399 21.3046 18.376 25.7839 15.9911C32.3979 12.4696 40.4214 11.6246 45.9886 13.8632C51.0316 15.8912 56.2586 20.1413 58.024 23.6493C58.693 24.9781 59.1925 27.0011 59.1608 28.251C59.0966 30.7667 57.4285 34.1007 55.617 35.3325Z" fill="white" fill-opacity="0.25"/>
</svg>
