<svg width="200" height="87" viewBox="0 0 200 87" fill="none" xmlns="http://www.w3.org/2000/svg">
<path fill-rule="evenodd" clip-rule="evenodd" d="M47.9557 0.177211C46.4798 0.411781 43.5141 1.59165 42.2878 2.43159C39.5307 4.32036 37.5268 7.46689 36.6566 11.2735C36.4453 12.1974 36.2241 13.1283 36.1649 13.3424C35.8985 14.3073 34.762 14.2209 32.4191 13.0584C29.0074 11.3654 26.7097 10.8627 23.2162 11.0456C21.3073 11.1455 19.7395 11.4188 18.6344 11.844C14.9198 13.2743 11.9492 16.5809 10.6496 20.7323C9.64351 23.9463 9.63924 28.8525 10.6395 31.7821C11.9965 35.7549 14.6651 38.4836 18.289 39.6027C20.3403 40.2364 25.7607 40.3204 27.6748 39.7483C32.1735 38.4041 33.9346 34.2592 31.5617 30.5995C29.8403 27.9444 26.1104 27.1115 22.7583 28.6335L21.2318 29.3265L22.2846 28.2404C25.2436 25.1873 30.5441 25.2353 33.4936 28.3415C35.1179 30.0522 35.5812 31.3805 35.5836 34.3334C35.5855 36.7826 35.4945 37.2377 34.748 38.5074C32.4695 42.3833 27.7295 44.1905 21.328 43.6233C20.0987 43.5146 18.6995 43.3197 18.2194 43.1902C17.3577 42.9584 17.3489 42.9694 17.5685 43.9892C18.5275 48.4482 22.339 56.908 25.6712 61.9747C33.7333 74.2332 43.9606 82.6334 54.1131 85.3355C61.8747 87.4014 70.2389 87.5087 77.666 85.6376C80.4283 84.9415 85.2813 83.316 85.1096 83.1444C85.0287 83.0634 82.8653 83.2329 80.3025 83.5207C74.2015 84.206 67.6488 84.0252 63.5326 83.0582C60.2559 82.2882 55.9979 80.4034 53.1186 78.4481C49.4126 75.9313 45.2318 71.1022 43.0569 66.8253L42.1843 65.1094L39.7952 64.971C35.6737 64.7325 32.7184 62.8865 30.9484 59.4449C30.2838 58.1529 30.1039 57.3224 29.997 55.0543C29.8794 52.5669 29.9482 52.0764 30.6152 50.6256C32.2554 47.0588 35.3078 45.331 39.5869 45.5475L42.0609 45.6728L42.4149 43.3946C43.128 38.8073 45.551 35.4259 49.4055 33.6382C50.9556 32.9196 51.5228 32.8261 54.217 32.8462C59.5098 32.8856 63.3267 34.8688 66.4827 39.2187L67.1421 40.1274L68.3153 39.4744C70.3058 38.366 72.6286 37.8458 75.5882 37.8458C80.1653 37.8458 83.6549 39.0883 86.4679 41.7196C89.4409 44.5005 90.7158 47.5087 90.7158 51.7429C90.7158 55.346 89.4666 58.9669 87.6587 60.6028C86.7281 61.4448 86.922 61.87 88.4077 62.2438C92.902 63.3758 96.4218 62.206 111.787 54.4734C121.486 49.5929 127.071 47.2344 132.455 45.7461C135.754 44.8337 136.461 44.7446 140.501 44.732C144.394 44.7198 145.188 44.8063 147.068 45.4483C149.578 46.3059 152.901 47.928 157.147 50.3681C167.435 56.2815 173.927 57.8902 182.963 56.766C188.635 56.0601 193.557 54.4236 198.303 51.6653C200.635 50.3101 200.544 49.8846 198.151 50.9561C193.217 53.1656 185.646 53.9804 179.425 52.9716C174.038 52.0978 170.612 50.6845 165.088 47.0564C161.655 44.802 156.717 42.1447 153.859 41.014C148.158 38.7588 141.464 37.9384 136.473 38.8831C131.636 39.7987 119.221 44.193 116.997 45.7766C116.52 46.1162 115.281 46.6116 114.244 46.8774C111.117 47.6785 108.267 46.8881 106.323 44.6804C103.726 41.7294 104.185 37.8522 107.311 36.3462C108.642 35.7045 110.065 35.7921 111.358 36.5951C111.906 36.9356 111.901 36.9472 111.271 36.7756C110.045 36.4418 108.15 37.1797 107.502 38.2432C105.862 40.9325 108.05 43.6578 111.837 43.6423C113.888 43.6337 115.623 42.8604 116.93 41.3723C118.232 39.8888 118.511 39.11 118.503 36.986C118.483 31.8829 113.768 28.503 108.176 29.5836C106.345 29.9376 105.376 29.6347 105.376 28.7092C105.376 28.3992 105.736 27.3604 106.175 26.4005C107.38 23.7689 106.977 21.484 104.783 18.5002C103.173 16.3103 101.553 15.4746 98.583 15.3027C97.2431 15.2251 95.4338 15.3213 94.5624 15.5165L92.9775 15.8711L92.4634 18.061C91.4338 22.4485 89.072 25.512 85.2938 27.3598C83.7276 28.1258 83.2086 28.219 80.4839 28.2217C77.6978 28.2245 77.2686 28.1445 75.597 27.3085C72.6032 25.8116 71.0058 22.6977 71.7718 19.8527C72.5794 16.854 74.9788 15.0834 77.8624 15.3583C78.8807 15.4551 79.7298 15.7285 80.07 16.0687C80.6036 16.6026 80.5758 16.6182 79.2729 16.5143C78.2998 16.4371 77.5903 16.5937 76.7323 17.076C75.2131 17.93 74.528 19.101 74.528 20.8435C74.528 21.9852 74.7018 22.4097 75.528 23.286C78.0176 25.9255 83.4292 25.4518 86.6655 22.3108C88.5081 20.5228 89.3111 18.5751 89.3276 15.8549C89.352 11.7658 87.554 8.14831 84.584 6.31207C82.489 5.01705 78.965 4.38756 76.2867 4.82982C75.1178 5.02285 73.7547 5.3912 73.2574 5.64837C71.8418 6.38048 69.9909 8.1874 68.6806 10.1171C67.6934 11.5703 67.3269 11.8843 66.6165 11.8843C65.8383 11.8843 65.6861 11.7023 65.0835 10.0502C64.7158 9.04138 64.5133 8.04477 64.6336 7.83585C64.7537 7.62663 64.7393 7.55791 64.6013 7.68314C64.4632 7.80806 64.0096 7.39573 63.5933 6.76685C61.7382 3.96331 58.6097 1.67809 55.1775 0.618862C53.2078 0.0107518 50.1697 -0.174949 47.9557 0.177211ZM148.068 16.4911C145.604 16.8521 143.432 17.8692 142.19 19.2443C140.521 21.0915 140.093 22.3511 140.071 25.4759C140.047 28.9749 140.884 30.9556 143.468 33.5145C145.21 35.2393 145.275 35.2714 148.075 35.7918C153.389 36.7796 159.754 39.5993 166.018 43.7412C167.685 44.8438 169.105 45.6896 169.174 45.6205C169.383 45.4113 164.591 40.2792 162.776 38.7685C160.322 36.7267 159.368 36.1986 155.295 34.629C149.594 32.4318 148.145 31.3845 146.895 28.5562C145.254 24.8474 147.839 20.4363 151.652 20.4363C153.892 20.4363 156.081 22.3761 156.073 24.3541C156.066 26.0431 155.658 26.4298 155.205 25.1766C154.68 23.7234 153.518 22.8798 152.042 22.8798C149.509 22.8798 148.234 25.606 149.676 27.9389C150.333 29.0021 152.674 30.7217 153.876 31.0231C155.057 31.3197 156.913 30.9263 158.375 30.0696C163.019 27.3482 162.381 20.8911 157.165 17.835C155.137 16.6463 151.091 16.0485 148.068 16.4911ZM51.5206 35.8401C49.4358 36.4002 47.6566 37.7569 46.518 39.6546C45.1201 41.9847 44.7239 44.1566 45.1876 46.9498C45.7053 50.0697 44.9909 50.7982 42.7044 49.4812C40.5227 48.2243 37.5359 48.4207 35.5091 49.9543C34.0934 51.0251 33.5003 52.351 33.4783 54.4917C33.4395 58.2983 36.116 61.2344 39.9415 61.5814C43.0679 61.8648 45.3354 60.7298 47.1316 57.9819C47.6689 57.1603 48.2009 56.4856 48.3136 56.4825C48.4266 56.4795 48.6753 56.9498 48.8658 57.528C49.4969 59.4397 47.9208 62.5163 45.6915 63.7236C45.1332 64.026 45.1515 64.1189 46.1118 65.8326C51.0399 74.6272 58.303 79.4447 68.4057 80.6191C73.6734 81.2315 83.9609 80.2049 88.8227 78.5816C91.2087 77.785 94.9081 75.9619 99.5097 73.3144C101.91 71.9333 105.69 69.8005 107.909 68.5751C110.128 67.3497 113.417 65.4447 115.219 64.3418C121.768 60.3334 128.183 57.6844 133.934 56.6135C136.09 56.2122 137.771 56.1362 141.722 56.2614C147.964 56.459 149.913 56.9168 157.58 59.9858C164.786 62.8697 167.18 63.3345 173.64 63.1036C180.96 62.8419 186.358 61.483 191.706 58.5552C194.435 57.0616 199.754 53.0354 199.754 52.4637C199.754 52.3058 198.895 52.7725 197.845 53.5012C193.329 56.6349 187.206 59.1443 182.34 59.8557C178.974 60.348 172.822 60.0551 169.822 59.2598C164.46 57.8386 161.906 56.7156 154.001 52.3036C146.886 48.3324 143.209 47.283 138.574 47.8999C132.117 48.7597 125.136 51.3763 113.105 57.4458C104.02 62.0291 98.5 64.4102 95.1131 65.2071C92.1693 65.8998 88.7381 65.6625 86.0281 64.5782C84.8833 64.1204 83.6488 63.8168 83.2844 63.9038C82.92 63.9909 81.866 64.2783 80.942 64.5422C75.7177 66.0342 69.2068 63.4827 67.6174 59.32C66.9515 57.5769 67.1681 54.3576 68.0703 52.591C69.9793 48.8523 74.2223 47.2155 77.5915 48.9176C80.3028 50.2875 81.1959 53.2159 79.4384 54.9734C78.3337 56.0781 77.4281 56.1905 77.7809 55.1789C78.2625 53.799 78.0053 52.7306 76.9687 51.8043C76.112 51.0385 75.7824 50.9307 74.6823 51.0547C71.2468 51.4417 69.0795 55.8378 70.9392 58.6462C71.3613 59.2839 72.3247 60.0328 73.4367 60.5884C78.0399 62.8877 84.4047 60.6993 86.47 56.1068C87.0696 54.7742 87.1972 53.9844 87.2 51.5901C87.203 48.9433 87.1239 48.5453 86.2999 47.0579C85.0818 44.8588 82.5819 42.6298 80.4066 41.8039C77.987 40.8852 73.9789 40.6613 71.7178 41.3186C70.7786 41.5916 69.2862 42.302 68.4014 42.8976C67.5166 43.4929 66.5881 43.9401 66.3376 43.8909C66.0872 43.8417 65.5255 43.1401 65.0893 42.3314C62.2259 37.0227 56.792 34.4232 51.5206 35.8401ZM5.50098 52.7581C3.45002 53.522 1.08416 56.0021 0.48674 58.0145C-0.521482 61.4094 0.0172951 63.8391 2.28358 66.1148C4.09692 67.9361 5.86871 68.5751 8.30512 68.2864C10.4715 68.0299 12.0234 66.9401 12.6835 65.2114C13.3172 63.5523 13.1135 62.0316 12.1001 60.8535C11.5124 60.17 11.0845 60.0127 9.50668 59.8984C7.99298 59.7888 7.49787 59.8697 7.01713 60.3047C5.72547 61.4738 6.57456 63.6717 8.55038 64.2737L9.30876 64.5046L8.55038 64.789C7.51314 65.1775 5.69095 64.6011 5.09873 63.6971C3.84402 61.7823 4.38555 59.4232 6.38611 58.0866C7.85431 57.1059 10.6444 57.1199 12.5304 58.1178C14.2292 59.0167 15.1745 60.6043 15.7915 63.5938C16.3697 66.3952 17.6931 69.8292 19.1631 72.3413C20.6564 74.8935 24.9287 79.2508 27.6446 80.9914C31.2465 83.3001 38.9989 86.9002 39.7958 86.6348C39.9592 86.5802 39.163 85.9916 38.0258 85.327C31.6152 81.5787 25.2473 74.0139 21.0684 65.1818C16.1913 54.8738 16.0108 54.6017 13.0836 53.139C11.4947 52.3452 10.8741 52.2044 9.0409 52.2236C7.82041 52.2361 6.27554 52.4695 5.50098 52.7581Z" fill="url(#paint0_linear_864_4800)"/>
<defs>
<linearGradient id="paint0_linear_864_4800" x1="22.5" y1="10" x2="200" y2="62" gradientUnits="userSpaceOnUse">
<stop stop-color="#F9CA87"/>
<stop offset="1" stop-color="#E79B4D"/>
</linearGradient>
</defs>
</svg>
