<svg width="55" height="55" viewBox="0 0 55 55" fill="none" xmlns="http://www.w3.org/2000/svg">
<path fill-rule="evenodd" clip-rule="evenodd" d="M20.0466 54.6037C18.4281 54.1035 16.6312 52.4492 15.7497 50.6474C15.1268 49.3742 15.0235 48.8497 15.0243 46.9555C15.0248 45.0272 15.1213 44.5563 15.7877 43.2355C16.8142 41.2004 17.852 40.3233 19.4923 40.1049C21.1636 39.8825 23.6603 39.0662 25.6456 38.0932C29.1141 36.3935 31.8134 33.4607 33.1776 29.9106C33.7346 28.4608 33.8867 27.554 33.9859 25.0956C34.136 21.3704 33.69 19.1001 32.2022 16.012C30.4604 12.3978 27.9837 9.66143 24.6063 7.6204C22.5987 6.40716 23.3624 6.44872 26.6244 7.73079C32.2715 9.94999 36.8912 13.53 39.4327 17.657C42.4394 22.5395 43.2373 30.1395 41.1726 34.2283C40.2955 35.9651 39.5592 36.7197 38.4042 37.0662C36.6961 37.5784 35.409 38.3098 34.1101 39.5064C32.97 40.5568 31.7242 42.7126 31.719 43.6438C31.7159 44.1872 31.265 44.2321 30.7016 43.7456C29.5362 42.7391 26.5654 42.5046 24.8557 43.2841C23.5998 43.8568 22.3047 45.2794 21.8891 46.5435C21.5021 47.7204 21.8927 49.0599 22.8412 49.8084C23.6733 50.4653 25.4701 50.5032 26.6179 49.8882L27.4461 49.4443L26.3555 49.2874C25.1477 49.1139 24.2111 48.4235 24.2111 47.7066C24.2111 46.8311 24.7991 45.9422 25.6448 45.5394C26.7745 45.0015 27.7148 45.0329 28.9876 45.6513C31.6636 46.9513 31.7115 50.4193 29.0862 52.7884C26.8868 54.7728 23.0718 55.539 20.0466 54.6037ZM38.9119 51.5271C34.6924 50.3869 32.565 45.8199 34.7056 42.496C35.3464 41.501 36.855 40.2023 37.3697 40.2023C37.5457 40.2023 37.6689 40.6262 37.6689 41.2313C37.6689 42.9973 38.6397 45.1066 40.1506 46.6227C40.9021 47.3773 41.6387 47.9944 41.7873 47.9944C41.9358 47.9944 41.7063 47.4391 41.2774 46.7607C39.7585 44.3573 39.3581 41.7025 40.23 39.8127C41.1392 37.8418 43.3999 36.369 45.0412 36.6779C47.674 37.1737 48.4347 41.5103 46.078 42.5882C45.2565 42.9638 43.984 42.4472 43.514 41.5472C43.1757 40.8994 43.1654 40.8971 42.9935 41.4402C42.582 42.7412 44.4483 44.615 46.1577 44.6168C49.6148 44.6207 51.0838 39.3851 48.4652 36.3919C47.5027 35.2914 45.9328 34.5018 44.691 34.4937C43.9211 34.4888 43.8357 34.4202 43.9553 33.9036C44.7902 30.3031 44.9452 29.0091 44.7966 26.8865C44.6279 24.4741 43.7966 21.2024 42.7479 18.8221C40.3012 13.2697 34.9947 8.80818 27.4461 5.95703C24.6308 4.89366 17.7228 3.93367 15.1803 4.25237C13.7543 4.43132 13.7471 4.43652 14.3664 4.85028C14.7101 5.07963 16.1664 5.73547 17.6027 6.30768C24.4481 9.03389 28.9254 13.3414 30.8173 19.0208C32.1753 23.0974 31.9154 27.5138 30.118 30.8979C27.281 36.2402 18.4156 39.8215 13.6001 37.5703C11.6277 36.6485 9.70972 34.8239 8.68537 32.895C7.12063 29.9491 7.34321 26.312 9.2286 24.0164C11.018 21.8377 14.7119 20.9556 16.7443 22.2216C17.9053 22.9447 18.6351 24.533 18.2606 25.5213C17.9643 26.3037 16.6638 27.1512 15.4117 27.3777C13.8752 27.6559 13.7114 27.8551 14.5416 28.4358C15.6845 29.2353 16.8846 29.5532 18.75 29.5504C23.5281 29.5434 26.4373 25.6312 25.5084 20.4621C24.6409 15.6344 20.8119 11.4505 14.5778 8.51857C8.9716 5.88197 1.71317 4.20847 -5.37109 3.91886C-7.47802 3.83289 -9.10849 3.67705 -8.99435 3.57263C-8.73814 3.33887 3.83408 1.13369 7.90637 0.608494C19.2894 -0.859808 28.3522 0.315768 36.2201 4.28094C39.0447 5.70456 40.0647 6.35391 42.7156 8.41572C47.4564 12.1032 51.5367 17.2775 53.1219 21.6125C55.2653 27.474 55.6198 36.168 53.949 41.8906C51.9112 48.869 45.1385 53.2092 38.9119 51.5271Z" fill="url(#paint0_linear_909_4646)"/>
<defs>
<linearGradient id="paint0_linear_909_4646" x1="-1.8" y1="48.6758" x2="58.5488" y2="39.73" gradientUnits="userSpaceOnUse">
<stop stop-color="#F9CA87"/>
<stop offset="1" stop-color="#E79B4D"/>
</linearGradient>
</defs>
</svg>
