<svg width="30" height="30" viewBox="0 0 30 30" fill="none" xmlns="http://www.w3.org/2000/svg">
<path fill-rule="evenodd" clip-rule="evenodd" d="M6.95108 6.03982C6.55962 6.16525 6.28025 6.40612 6.10902 6.76584L6 6.9948V9.00337V11.012L6.11533 11.2462C6.2582 11.5364 6.53655 11.8009 6.81909 11.915L7.02153 11.9968L9.98043 12.0075C12.1048 12.0153 12.9986 12.0069 13.1495 11.9779C13.7151 11.8689 14.1158 11.4688 14.2242 10.9048C14.2527 10.7569 14.2615 10.1435 14.2537 8.86173C14.2426 7.04049 14.242 7.02886 14.1608 6.82759C14.0468 6.54508 13.7824 6.26674 13.4922 6.12383L13.2579 6.0085L10.1749 6.00156C7.74896 5.99614 7.06196 6.00427 6.95108 6.03982ZM16.7235 6.03865C16.349 6.14056 15.9856 6.46512 15.8385 6.82917L15.7573 7.03003L15.7467 11.1161C15.739 14.0691 15.7472 15.2609 15.7762 15.4136C15.8833 15.9767 16.2847 16.3777 16.8505 16.4867C17.0014 16.5157 17.8952 16.5241 20.0196 16.5163L22.9785 16.5056L23.1809 16.4238C23.4635 16.3097 23.7418 16.0452 23.8847 15.755L24 15.5207V11.2578V6.9948L23.8909 6.76584C23.7491 6.46836 23.5396 6.25768 23.2483 6.11964L23.0137 6.0085L19.9491 6.0017C17.5983 5.99645 16.847 6.00508 16.7235 6.03865ZM13.0782 7.1964C13.1261 7.26466 13.1331 7.49644 13.1331 9.01048C13.1331 10.6993 13.1312 10.7482 13.0626 10.8167C12.9933 10.886 12.9452 10.8872 10.1292 10.8872C7.59492 10.8872 7.25718 10.8809 7.18789 10.8323L7.10959 10.7775V9.01221C7.10959 7.41902 7.11526 7.24064 7.16789 7.18252C7.22347 7.12108 7.36141 7.11809 10.1248 7.11809H13.0234L13.0782 7.1964ZM22.826 7.17639C22.8877 7.23222 22.8904 7.4051 22.8904 11.2605V15.2863L22.8121 15.3411C22.7428 15.3897 22.4051 15.396 19.8708 15.396C17.0548 15.396 17.0067 15.3948 16.9374 15.3255C16.8678 15.2559 16.8669 15.2081 16.8669 11.2649C16.8669 7.71043 16.8729 7.26611 16.9218 7.1964L16.9766 7.11809H19.8691C22.5111 7.11809 22.7672 7.12313 22.826 7.17639ZM7.04072 13.5323C6.64634 13.6096 6.2762 13.9084 6.0944 14.2963L6 14.4977V18.76V23.0222L6.10902 23.2512C6.24753 23.5422 6.46634 23.761 6.75734 23.8995L6.9863 24.0085H10.1221H13.2578L13.4921 23.8932C13.7823 23.7503 14.0468 23.472 14.1609 23.1894L14.2427 22.987L14.2533 18.9009C14.261 15.9479 14.2528 14.7561 14.2238 14.6034C14.1189 14.0516 13.7256 13.6502 13.1754 13.5334C12.9493 13.4855 7.28497 13.4844 7.04072 13.5323ZM13.0626 14.6915C13.1322 14.7611 13.1331 14.8089 13.1331 18.7521C13.1331 22.3066 13.1271 22.7509 13.0782 22.8206L13.0234 22.8989H10.1309C7.48886 22.8989 7.23284 22.8939 7.17402 22.8406C7.1123 22.7848 7.10959 22.6119 7.10959 18.7565V14.7307L7.18789 14.6759C7.25718 14.6273 7.59492 14.621 10.1292 14.621C12.9452 14.621 12.9933 14.6222 13.0626 14.6915ZM16.7789 18.0509C16.25 18.1812 15.881 18.5721 15.7759 19.1134C15.7473 19.261 15.7385 19.8687 15.7463 21.1553C15.7574 22.9765 15.758 22.9881 15.8392 23.1894C15.9532 23.472 16.2176 23.7503 16.5079 23.8932L16.7422 24.0085H19.8779H23.0137L23.2483 23.8974C23.5396 23.7593 23.7491 23.5486 23.8909 23.2512L24 23.0222V21.0136V19.0051L23.8847 18.7708C23.7418 18.4806 23.4635 18.2161 23.1809 18.102L22.9785 18.0202L19.9667 18.0139C17.6811 18.009 16.9125 18.018 16.7789 18.0509ZM22.8121 19.1847L22.8904 19.2395V21.0048C22.8904 22.598 22.8847 22.7764 22.8321 22.8345C22.7765 22.8959 22.6386 22.8989 19.8752 22.8989H16.9766L16.9218 22.8206C16.8739 22.7523 16.8669 22.5206 16.8669 21.0065C16.8669 19.3177 16.8688 19.2688 16.9374 19.2003C17.0067 19.131 17.0548 19.1298 19.8708 19.1298C22.4051 19.1298 22.7428 19.1361 22.8121 19.1847Z" fill="white"/>
</svg>
