<svg width="30" height="30" viewBox="0 0 30 30" fill="none" xmlns="http://www.w3.org/2000/svg">
<path d="M8.01903 14.9998C8.01903 15.6893 7.46006 16.2483 6.77053 16.2483C6.08101 16.2483 5.52203 15.6893 5.52203 14.9998C5.52203 14.3102 6.08101 13.7513 6.77053 13.7513C7.46006 13.7513 8.01903 14.3102 8.01903 14.9998Z" fill="#4584E2"/>
<path d="M8.01903 20.5017C8.01903 21.1913 7.46006 21.7502 6.77053 21.7502C6.08101 21.7502 5.52203 21.1913 5.52203 20.5017C5.52203 19.8122 6.08101 19.2533 6.77053 19.2533C7.46006 19.2533 8.01903 19.8122 8.01903 20.5017Z" fill="#4584E2"/>
<path d="M9.47794 13.7498H24.4779V16.2498H9.47794V13.7498Z" fill="#4584E2"/>
<path d="M9.47794 19.2498H24.4779V21.7498H9.47794V19.2498Z" fill="#4584E2"/>
<path d="M9.47794 8.24975H24.4779V10.7498H9.47794V8.24975Z" fill="#4584E2"/>
<path d="M8.01903 9.49825C8.01903 10.1878 7.46006 10.7467 6.77053 10.7467C6.08101 10.7467 5.52203 10.1878 5.52203 9.49825C5.52203 8.80872 6.08101 8.24975 6.77053 8.24975C7.46006 8.24975 8.01903 8.80872 8.01903 9.49825Z" fill="#4584E2"/>
</svg>
