<svg width="30" height="30" viewBox="0 0 30 30" fill="none" xmlns="http://www.w3.org/2000/svg">
<path fill-rule="evenodd" clip-rule="evenodd" d="M10.1907 6.03989C9.0992 6.2609 8.24735 7.12534 8.05069 8.2116C7.98343 8.58301 7.98295 20.6285 8.05018 21.0037C8.15043 21.5634 8.42573 22.067 8.85349 22.4734C9.26762 22.8668 9.74682 23.1056 10.2917 23.1901C10.4761 23.2187 11.6258 23.2265 14.5528 23.219L18.5614 23.2087L18.7262 23.1068C18.8283 23.0437 18.9297 22.9423 18.9929 22.8402C19.083 22.6943 19.0948 22.6457 19.0948 22.4176C19.0948 22.1895 19.083 22.1409 18.9929 21.9951C18.9297 21.8929 18.8283 21.7915 18.7262 21.7284L18.5615 21.6265L14.4855 21.6097L10.4096 21.5929L10.2339 21.5003C10.0005 21.3772 9.83088 21.202 9.72349 20.973L9.6353 20.7849V14.6077V8.43041L9.72349 8.24236C9.83088 8.01332 10.0005 7.83813 10.2339 7.71506L10.4096 7.62248L14.4855 7.60565L18.5615 7.58882L18.7262 7.48696C18.8283 7.4238 18.9297 7.32241 18.9929 7.22027C19.083 7.07441 19.0948 7.02587 19.0948 6.79773C19.0948 6.56959 19.083 6.52105 18.9929 6.37518C18.9297 6.27305 18.8283 6.17165 18.7262 6.1085L18.5614 6.00663L14.4855 6.00111C11.2317 5.9967 10.3654 6.00455 10.1907 6.03989ZM18.0151 10.0423C17.7194 10.18 17.5622 10.4406 17.5638 10.7908C17.5652 11.1083 17.6147 11.1694 18.9687 12.5279L20.2365 13.7997H17.0101C14.5754 13.7997 13.7497 13.8098 13.6452 13.8407C13.3559 13.9262 13.0858 14.2964 13.0858 14.6077C13.0858 14.9189 13.3559 15.2892 13.6452 15.3747C13.7497 15.4056 14.5754 15.4156 17.0101 15.4156H20.2365L18.9713 16.6864C18.2755 17.3853 17.6782 18.0102 17.644 18.075C17.5998 18.1588 17.5816 18.2664 17.5809 18.4478C17.58 18.6738 17.5915 18.7215 17.6818 18.8677C17.8702 19.1727 18.2405 19.315 18.5974 19.2194C18.7471 19.1793 18.8983 19.0367 20.8056 17.1361C22.0028 15.9432 22.8831 15.0399 22.9252 14.9611C23.025 14.7746 23.0249 14.4405 22.9251 14.2542C22.8831 14.1758 21.9975 13.2662 20.8055 12.0772C18.5947 9.87195 18.7001 9.96227 18.3373 9.96261C18.249 9.96271 18.1146 9.9959 18.0151 10.0423Z" fill="white"/>
</svg>
