<svg width="30" height="30" viewBox="0 0 30 30" fill="none" xmlns="http://www.w3.org/2000/svg">
<path fill-rule="evenodd" clip-rule="evenodd" d="M5.93794 4.08509C5.46914 4.20791 5.13429 4.4036 4.76506 4.77052C4.53334 5.00081 4.39445 5.18442 4.28439 5.4059C4.00965 5.95891 3.98893 6.14231 4.00342 7.89257L4.01623 9.44277L4.13157 9.61696C4.26535 9.81901 4.46503 9.95404 4.69249 9.99621L4.85293 10.026L4.86475 16.5879C4.87765 23.746 4.85886 23.1931 5.11168 23.8688C5.3967 24.6306 6.23241 25.4662 6.99509 25.7519C7.64728 25.9962 7.49776 25.9872 10.8977 25.9872H14.039L14.2133 25.8719C14.4816 25.6943 14.5916 25.4842 14.5916 25.1489C14.5916 24.8137 14.4816 24.6036 14.2133 24.426L14.0391 24.3106L10.9622 24.2891L7.88527 24.2676L7.5981 24.1316C7.19847 23.9423 6.94952 23.6985 6.75615 23.3073L6.59559 22.9824L6.58415 16.4996L6.57272 10.0167H14.9975H23.4222L23.4348 11.7287L23.4474 13.4408L23.5627 13.615C23.7404 13.8833 23.9505 13.9932 24.2857 13.9932C24.6209 13.9932 24.831 13.8833 25.0086 13.615L25.124 13.4408L25.1366 11.7332L25.1491 10.0256L25.3085 9.996C25.535 9.95404 25.7349 9.81875 25.8684 9.61696L25.9838 9.44277L25.9966 7.89257C26.0111 6.14231 25.9904 5.95891 25.7156 5.4059C25.6056 5.18442 25.4667 5.00081 25.2349 4.77052C24.8604 4.39827 24.529 4.20684 24.0451 4.08307C23.7197 3.99985 23.5403 3.99821 14.9824 4.00053C6.52775 4.00281 6.24174 4.00552 5.93794 4.08509ZM23.8694 5.84125C23.9597 5.89735 24.0855 6.02164 24.1489 6.11742L24.2642 6.29156L24.2778 7.29433L24.2914 8.2971H15.0028H5.7143L5.71456 7.38358C5.71469 6.87312 5.7349 6.39771 5.76035 6.30605C5.81597 6.10568 6.0905 5.82165 6.28224 5.76606C6.37019 5.74057 9.69095 5.72776 15.0645 5.73214L23.7053 5.73924L23.8694 5.84125ZM12.7306 11.784C12.527 11.8439 12.263 12.1254 12.2035 12.3461C12.1006 12.7283 12.2535 13.13 12.579 13.3323L12.7431 13.4343H14.957H17.171L17.3351 13.3323C17.4253 13.2762 17.5511 13.1518 17.6145 13.056C17.7106 12.9108 17.7298 12.834 17.7298 12.596C17.7298 12.358 17.7106 12.2812 17.6145 12.1361C17.5511 12.0402 17.4253 11.9159 17.3351 11.8598L17.171 11.7577L15.0215 11.7501C13.7403 11.7455 12.8149 11.7592 12.7306 11.784ZM19.5999 14.4279C18.2164 14.5983 17.0578 15.1632 16.0958 16.1366C15.2415 17.0011 14.7489 17.9238 14.4977 19.1304C14.392 19.6375 14.392 20.7728 14.4977 21.2799C14.7519 22.5007 15.2459 23.4192 16.1168 24.2901C16.9876 25.1609 17.9062 25.655 19.127 25.9092C19.634 26.0148 20.7694 26.0148 21.2764 25.9092C22.4793 25.6587 23.4436 25.1423 24.2912 24.2946C25.1388 23.447 25.6553 22.4827 25.9057 21.2799C26.0114 20.7729 26.0114 19.6375 25.9057 19.1304C25.7406 18.3373 25.4344 17.5996 24.9958 16.938C24.7251 16.5297 23.8853 15.687 23.4868 15.4237C22.7939 14.966 22.0468 14.6516 21.31 14.5079C20.9636 14.4404 19.9023 14.3907 19.5999 14.4279ZM21.212 16.2473C22.6444 16.6209 23.767 17.7502 24.1635 19.2164C24.3056 19.7419 24.3056 20.6684 24.1635 21.1939C23.7635 22.6732 22.6697 23.7669 21.1905 24.1669C20.6683 24.3081 19.7412 24.3075 19.213 24.1657C17.7456 23.7715 16.6398 22.6715 16.2382 21.2061C16.106 20.7238 16.106 19.6865 16.2382 19.2042C16.6824 17.5836 17.9876 16.4198 19.6643 16.1491C19.9623 16.101 20.8726 16.1587 21.212 16.2473ZM19.9099 17.6718C19.7167 17.7309 19.4432 18.0151 19.388 18.2141C19.3629 18.3043 19.3423 18.5938 19.3422 18.8575L19.3419 19.3369L18.7691 19.3519C18.2323 19.3659 18.1853 19.3741 18.0221 19.4822C17.7529 19.6604 17.6438 19.8697 17.6438 20.2083C17.6438 20.4429 17.6634 20.5205 17.7592 20.6651C17.8226 20.761 17.9483 20.8853 18.0386 20.9414C18.1853 21.0327 18.2625 21.045 18.7682 21.0583L19.3337 21.0732L19.3485 21.6387C19.3618 22.1444 19.3742 22.2215 19.4654 22.3682C19.5215 22.4585 19.6459 22.5843 19.7417 22.6477C19.8869 22.7438 19.9637 22.763 20.2017 22.763C20.4397 22.763 20.5165 22.7438 20.6617 22.6477C20.7575 22.5843 20.8819 22.4585 20.938 22.3682C21.0292 22.2215 21.0416 22.1444 21.0549 21.6387L21.0697 21.0732L21.6352 21.0583C22.1409 21.045 22.2181 21.0327 22.3648 20.9414C22.4551 20.8853 22.5808 20.761 22.6442 20.6651C22.74 20.5205 22.7596 20.4429 22.7596 20.2083C22.7596 19.8697 22.6506 19.6604 22.3814 19.4822C22.2183 19.3742 22.1709 19.3659 21.6385 19.352L21.0697 19.3371L21.0549 18.7716C21.0416 18.2659 21.0292 18.1888 20.938 18.0421C20.7353 17.7159 20.2898 17.5555 19.9099 17.6718Z" fill="white"/>
</svg>
