<svg width="30" height="30" viewBox="0 0 30 30" fill="none" xmlns="http://www.w3.org/2000/svg">
<path fill-rule="evenodd" clip-rule="evenodd" d="M12.9957 5.02C10.5968 5.16418 8.42243 5.74414 7.02691 6.61207C6.03207 7.23075 5.40985 7.92917 5.12009 8.75245L5 9.0936L5.00004 11.2898L5.00009 13.4859L5.11783 13.8615C5.32311 14.5163 5.61471 14.9949 6.07561 15.4334C6.28763 15.6351 6.76196 15.981 6.89539 16.0311C6.9151 16.0385 6.90486 16.1693 6.87267 16.3217C6.78525 16.7358 6.78823 20.5718 6.87629 20.9875C7.26823 22.8377 9.75646 24.3301 13.2729 24.8243C14.5311 25.0012 16.3771 25.0507 17.5586 24.9395C21.4774 24.5707 24.1919 23.2016 24.8799 21.2471L25 20.906L25 18.7098L24.9999 16.5136L24.8822 16.1381C24.6769 15.4832 24.3853 15.0047 23.9244 14.5661C23.7124 14.3644 23.238 14.0186 23.1046 13.9684C23.0849 13.9611 23.0951 13.8303 23.1273 13.6778C23.2148 13.2638 23.2118 9.42776 23.1237 9.01207C22.7011 7.01718 19.8958 5.47689 15.974 5.0864C15.1882 5.00814 13.7327 4.97569 12.9957 5.02ZM15.3198 6.85659C16.541 6.94682 17.6273 7.15096 18.6202 7.47684C20.2675 8.01753 21.3539 8.83799 21.3539 9.54136C21.3539 10.2447 20.2675 11.0652 18.6202 11.6059C15.9151 12.4937 12.2489 12.4886 9.51301 11.5931C7.96738 11.0872 6.81237 10.2097 6.81237 9.54136C6.81237 8.87301 7.9678 7.99527 9.51301 7.48972C10.4481 7.18375 11.6926 6.9426 12.7612 6.86021C13.4441 6.80759 14.6335 6.80588 15.3198 6.85659ZM7.45412 12.6554C8.90968 13.3846 10.2252 13.7765 12.0576 14.0269C12.7057 14.1154 15.5977 14.1015 16.2793 14.0065C17.9599 13.7724 19.3885 13.3387 20.7533 12.6484C21.0716 12.4875 21.3368 12.3559 21.3429 12.3559C21.349 12.3559 21.3535 12.5813 21.353 12.8569C21.3519 13.4555 21.2998 13.6025 20.9622 13.9595C20.1222 14.8476 18.2675 15.5284 15.8955 15.8191C15.2826 15.8942 12.8717 15.8927 12.2495 15.8168C11.7165 15.7517 10.7539 15.5819 10.3731 15.4857C8.62776 15.0448 7.25987 14.2748 6.91812 13.5408C6.82635 13.3436 6.81313 13.2553 6.81279 12.8356C6.81254 12.5718 6.82222 12.3559 6.83424 12.3559C6.84631 12.3559 7.12525 12.4907 7.45412 12.6554ZM22.298 15.6233C22.6108 15.8346 22.9158 16.1343 23.0522 16.3644C23.1424 16.5165 23.1657 16.6094 23.1644 16.8122C23.1624 17.1167 23.1001 17.2475 22.8008 17.5749C22.1267 18.3126 20.5552 18.9847 18.755 19.3055C17.0072 19.6168 14.7724 19.6166 13.036 19.3048C10.9216 18.9251 9.19203 18.0843 8.7562 17.2243C8.62478 16.9649 8.61279 16.8541 8.72068 16.896C8.99254 17.0017 10.0337 17.2788 10.5582 17.3851C11.9457 17.6663 12.9524 17.7517 14.4456 17.7149C16.3815 17.6672 17.902 17.4217 19.371 16.9194C20.1178 16.664 21.1667 16.1325 21.6311 15.7739C21.8422 15.611 22.0272 15.4757 22.0421 15.4733C22.0571 15.4708 22.1722 15.5384 22.298 15.6233ZM10.2777 20.391C11.4778 20.8725 12.6663 21.166 14.0192 21.3149C14.6186 21.3809 17.1442 21.3805 17.7932 21.3142C19.5141 21.1387 21.2894 20.6102 22.7505 19.8386L23.1876 19.6078L23.1867 20.1076C23.1855 20.718 23.1333 20.8562 22.7547 21.2506C21.8765 22.165 20.0395 22.8254 17.58 23.1107C16.968 23.1817 14.8307 23.1811 14.2111 23.1097C11.8594 22.839 9.95245 22.158 9.07356 21.2753C8.70414 20.9042 8.64606 20.7485 8.64606 20.1296V19.6148L9.17386 19.8872C9.46414 20.0371 9.9609 20.2638 10.2777 20.391Z" fill="white"/>
</svg>
