<svg width="136" height="45" viewBox="0 0 136 45" fill="none" xmlns="http://www.w3.org/2000/svg">
<path fill-rule="evenodd" clip-rule="evenodd" d="M0 0H110.55V2.36842H2.38596V43.8158H0V0ZM136 1.18421V45H27.0409V42.6316H133.614V1.18421H136Z" fill="#CC3636"/>
<path d="M32.44 29V16.04H34.609V26.966H40.333V29H32.44Z" fill="white"/>
<path d="M44.5757 29.27C43.8737 29.27 43.2797 29.138 42.7937 28.874C42.3077 28.604 41.9387 28.247 41.6867 27.803C41.4407 27.359 41.3177 26.87 41.3177 26.336C41.3177 25.868 41.3957 25.448 41.5517 25.076C41.7077 24.698 41.9477 24.374 42.2717 24.104C42.5957 23.828 43.0157 23.603 43.5317 23.429C43.9217 23.303 44.3777 23.189 44.8997 23.087C45.4277 22.985 45.9977 22.892 46.6097 22.808C47.2277 22.718 47.8727 22.622 48.5447 22.52L47.7707 22.961C47.7767 22.289 47.6267 21.794 47.3207 21.476C47.0147 21.158 46.4987 20.999 45.7727 20.999C45.3347 20.999 44.9117 21.101 44.5037 21.305C44.0957 21.509 43.8107 21.86 43.6487 22.358L41.6687 21.737C41.9087 20.915 42.3647 20.255 43.0367 19.757C43.7147 19.259 44.6267 19.01 45.7727 19.01C46.6367 19.01 47.3957 19.151 48.0497 19.433C48.7097 19.715 49.1987 20.177 49.5167 20.819C49.6907 21.161 49.7957 21.512 49.8317 21.872C49.8677 22.226 49.8857 22.613 49.8857 23.033V29H47.9867V26.894L48.3017 27.236C47.8637 27.938 47.3507 28.454 46.7627 28.784C46.1807 29.108 45.4517 29.27 44.5757 29.27ZM45.0077 27.542C45.4997 27.542 45.9197 27.455 46.2677 27.281C46.6157 27.107 46.8917 26.894 47.0957 26.642C47.3057 26.39 47.4467 26.153 47.5187 25.931C47.6327 25.655 47.6957 25.34 47.7077 24.986C47.7257 24.626 47.7347 24.335 47.7347 24.113L48.4007 24.311C47.7467 24.413 47.1857 24.503 46.7177 24.581C46.2497 24.659 45.8477 24.734 45.5117 24.806C45.1757 24.872 44.8787 24.947 44.6207 25.031C44.3687 25.121 44.1557 25.226 43.9817 25.346C43.8077 25.466 43.6727 25.604 43.5767 25.76C43.4867 25.916 43.4417 26.099 43.4417 26.309C43.4417 26.549 43.5017 26.762 43.6217 26.948C43.7417 27.128 43.9157 27.272 44.1437 27.38C44.3777 27.488 44.6657 27.542 45.0077 27.542Z" fill="white"/>
<path d="M54.5052 29L50.9772 19.28H53.1462L55.5942 26.327L58.0332 19.28H60.2112L56.6832 29H54.5052Z" fill="white"/>
<path d="M63.9995 29.27C63.2975 29.27 62.7035 29.138 62.2175 28.874C61.7315 28.604 61.3625 28.247 61.1105 27.803C60.8645 27.359 60.7415 26.87 60.7415 26.336C60.7415 25.868 60.8195 25.448 60.9755 25.076C61.1315 24.698 61.3715 24.374 61.6955 24.104C62.0195 23.828 62.4395 23.603 62.9555 23.429C63.3455 23.303 63.8015 23.189 64.3235 23.087C64.8515 22.985 65.4215 22.892 66.0335 22.808C66.6515 22.718 67.2965 22.622 67.9685 22.52L67.1945 22.961C67.2005 22.289 67.0505 21.794 66.7445 21.476C66.4385 21.158 65.9225 20.999 65.1965 20.999C64.7585 20.999 64.3355 21.101 63.9275 21.305C63.5195 21.509 63.2345 21.86 63.0725 22.358L61.0925 21.737C61.3325 20.915 61.7885 20.255 62.4605 19.757C63.1385 19.259 64.0505 19.01 65.1965 19.01C66.0605 19.01 66.8195 19.151 67.4735 19.433C68.1335 19.715 68.6225 20.177 68.9405 20.819C69.1145 21.161 69.2195 21.512 69.2555 21.872C69.2915 22.226 69.3095 22.613 69.3095 23.033V29H67.4105V26.894L67.7255 27.236C67.2875 27.938 66.7745 28.454 66.1865 28.784C65.6045 29.108 64.8755 29.27 63.9995 29.27ZM64.4315 27.542C64.9235 27.542 65.3435 27.455 65.6915 27.281C66.0395 27.107 66.3155 26.894 66.5195 26.642C66.7295 26.39 66.8705 26.153 66.9425 25.931C67.0565 25.655 67.1195 25.34 67.1315 24.986C67.1495 24.626 67.1585 24.335 67.1585 24.113L67.8245 24.311C67.1705 24.413 66.6095 24.503 66.1415 24.581C65.6735 24.659 65.2715 24.734 64.9355 24.806C64.5995 24.872 64.3025 24.947 64.0445 25.031C63.7925 25.121 63.5795 25.226 63.4055 25.346C63.2315 25.466 63.0965 25.604 63.0005 25.76C62.9105 25.916 62.8655 26.099 62.8655 26.309C62.8655 26.549 62.9255 26.762 63.0455 26.948C63.1655 27.128 63.3395 27.272 63.5675 27.38C63.8015 27.488 64.0895 27.542 64.4315 27.542Z" fill="white"/>
<path d="M75.4056 29.27C74.2056 29.27 73.2306 29 72.4806 28.46C71.7306 27.92 71.2746 27.161 71.1126 26.183L73.3266 25.841C73.4406 26.321 73.6926 26.699 74.0826 26.975C74.4726 27.251 74.9646 27.389 75.5586 27.389C76.0806 27.389 76.4826 27.287 76.7646 27.083C77.0526 26.873 77.1966 26.588 77.1966 26.228C77.1966 26.006 77.1426 25.829 77.0346 25.697C76.9326 25.559 76.7046 25.427 76.3506 25.301C75.9966 25.175 75.4536 25.016 74.7216 24.824C73.9056 24.608 73.2576 24.377 72.7776 24.131C72.2976 23.879 71.9526 23.582 71.7426 23.24C71.5326 22.898 71.4276 22.484 71.4276 21.998C71.4276 21.392 71.5866 20.864 71.9046 20.414C72.2226 19.964 72.6666 19.619 73.2366 19.379C73.8066 19.133 74.4786 19.01 75.2526 19.01C76.0086 19.01 76.6776 19.127 77.2596 19.361C77.8476 19.595 78.3216 19.928 78.6816 20.36C79.0416 20.792 79.2636 21.299 79.3476 21.881L77.1336 22.277C77.0796 21.863 76.8906 21.536 76.5666 21.296C76.2486 21.056 75.8226 20.921 75.2886 20.891C74.7786 20.861 74.3676 20.939 74.0556 21.125C73.7436 21.305 73.5876 21.56 73.5876 21.89C73.5876 22.076 73.6506 22.235 73.7766 22.367C73.9026 22.499 74.1546 22.631 74.5326 22.763C74.9166 22.895 75.4866 23.057 76.2426 23.249C77.0166 23.447 77.6346 23.675 78.0966 23.933C78.5646 24.185 78.9006 24.488 79.1046 24.842C79.3146 25.196 79.4196 25.625 79.4196 26.129C79.4196 27.107 79.0626 27.875 78.3486 28.433C77.6406 28.991 76.6596 29.27 75.4056 29.27Z" fill="white"/>
<path d="M85.8099 29.27C84.8259 29.27 83.9619 29.057 83.2179 28.631C82.4739 28.205 81.8919 27.614 81.4719 26.858C81.0579 26.102 80.8509 25.232 80.8509 24.248C80.8509 23.186 81.0549 22.265 81.4629 21.485C81.8709 20.699 82.4379 20.09 83.1639 19.658C83.8899 19.226 84.7299 19.01 85.6839 19.01C86.6919 19.01 87.5469 19.247 88.2489 19.721C88.9569 20.189 89.4819 20.852 89.8239 21.71C90.1659 22.568 90.2949 23.579 90.2109 24.743H88.0599V23.951C88.0539 22.895 87.8679 22.124 87.5019 21.638C87.1359 21.152 86.5599 20.909 85.7739 20.909C84.8859 20.909 84.2259 21.185 83.7939 21.737C83.3619 22.283 83.1459 23.084 83.1459 24.14C83.1459 25.124 83.3619 25.886 83.7939 26.426C84.2259 26.966 84.8559 27.236 85.6839 27.236C86.2179 27.236 86.6769 27.119 87.0609 26.885C87.4509 26.645 87.7509 26.3 87.9609 25.85L90.1029 26.498C89.7309 27.374 89.1549 28.055 88.3749 28.541C87.6009 29.027 86.7459 29.27 85.8099 29.27ZM82.4619 24.743V23.105H89.1489V24.743H82.4619Z" fill="white"/>
<path d="M97.916 29C97.274 29.12 96.644 29.171 96.026 29.153C95.414 29.141 94.865 29.03 94.379 28.82C93.893 28.604 93.524 28.265 93.272 27.803C93.05 27.383 92.933 26.954 92.921 26.516C92.909 26.078 92.903 25.583 92.903 25.031V16.58H95.063V24.905C95.063 25.295 95.066 25.637 95.072 25.931C95.084 26.225 95.147 26.465 95.261 26.651C95.477 27.011 95.822 27.212 96.296 27.254C96.77 27.296 97.31 27.272 97.916 27.182V29ZM91.139 20.981V19.28H97.916V20.981H91.139Z" fill="white"/>
<path d="M100.366 29V26.777H102.589V29H100.366Z" fill="white"/>
</svg>
