<svg width="19" height="18" viewBox="0 0 19 18" fill="none" xmlns="http://www.w3.org/2000/svg">
<path fill-rule="evenodd" clip-rule="evenodd" d="M9.52709 1.04067C9.40439 1.06288 9.17924 1.12623 9.02673 1.18142C8.66587 1.31207 8.50433 1.34387 8.04697 1.37442C7.60139 1.40417 7.37434 1.45775 7.04783 1.61026C6.7336 1.75706 6.55336 1.88038 6.23271 2.16802C6.02269 2.35641 5.89122 2.44411 5.58784 2.59823C5.11609 2.83789 4.93623 2.95898 4.69777 3.19741C4.45935 3.43586 4.33826 3.61572 4.0986 4.08747C3.94448 4.39086 3.85677 4.52232 3.66838 4.73234C3.38068 5.05308 3.25737 5.23332 3.11069 5.54746C2.95381 5.88355 2.90908 6.0764 2.87487 6.5641C2.84295 7.01943 2.81121 7.17447 2.67215 7.55447C2.43926 8.19087 2.4426 8.81083 2.68255 9.47366C2.81241 9.83236 2.84427 9.99454 2.87478 10.4513C2.90454 10.8969 2.95812 11.124 3.11063 11.4505C3.25746 11.7648 3.3808 11.945 3.66844 12.2656C3.85933 12.4783 3.94424 12.6063 4.10693 12.9265C4.49704 13.6942 4.8069 14.0081 5.52922 14.3671C5.88829 14.5455 6.01486 14.6327 6.38332 14.9551C6.8546 15.3675 7.4708 15.6201 8.0122 15.6228C8.33511 15.6243 8.61823 15.6763 8.97514 15.7995C9.75323 16.0681 10.2454 16.0681 11.0235 15.7995C11.3804 15.6763 11.6636 15.6243 11.9865 15.6228C12.5166 15.6202 13.1299 15.3759 13.5841 14.9865C13.6936 14.8926 13.8564 14.7542 13.9459 14.6791C14.0353 14.6039 14.2611 14.4679 14.4474 14.3769C14.8608 14.1751 14.9973 14.0838 15.2568 13.8356C15.5206 13.5834 15.6735 13.3651 15.8742 12.9544C16.0413 12.6125 16.1073 12.5171 16.448 12.125C16.8696 11.6398 17.1205 11.0309 17.1231 10.4861C17.1247 10.1632 17.1767 9.88008 17.2999 9.52317C17.5581 8.77506 17.5658 8.20831 17.3265 7.55447C17.1875 7.17447 17.1557 7.01943 17.1238 6.5641C17.0896 6.0764 17.0449 5.88355 16.888 5.54746C16.7413 5.23323 16.618 5.05299 16.3302 4.73234C16.1394 4.51962 16.0544 4.39165 15.8918 4.07147C15.4957 3.292 15.2053 3.00183 14.425 2.60594C14.1162 2.44924 13.9759 2.35773 13.8035 2.20058C13.4875 1.91256 13.3021 1.77901 13.0297 1.64344C12.6853 1.472 12.4242 1.40777 11.9342 1.37401C11.4792 1.34264 11.3243 1.31101 10.9438 1.17178C10.4823 1.00288 9.98832 0.957185 9.52709 1.04067ZM11.1155 2.66357C11.2106 2.75878 11.2275 2.87902 11.1592 2.97645C11.0952 3.06785 10.7242 3.22924 10.6315 3.20599C10.4798 3.16789 10.3956 2.97759 10.4694 2.83962C10.5059 2.77141 10.8653 2.58138 10.9616 2.57933C10.9993 2.57854 11.068 2.61614 11.1155 2.66357ZM6.81963 3.57553C6.85223 3.60596 6.91024 3.72116 6.94852 3.83152C7.01125 4.01243 7.01403 4.04069 6.97689 4.11819C6.92768 4.22084 6.79782 4.29008 6.70036 4.26563C6.59302 4.23869 6.52622 4.14874 6.45226 3.93144C6.39164 3.75343 6.389 3.7247 6.42603 3.64747C6.50373 3.4854 6.68705 3.45189 6.81963 3.57553ZM10.6442 4.04758C11.6609 4.18461 12.6738 4.73217 13.3671 5.51967C14.4344 6.73191 14.7774 8.42546 14.2582 9.91983C13.9878 10.6983 13.4993 11.4153 12.8917 11.9253C11.3333 13.2334 9.19146 13.3562 7.49314 12.2349C6.833 11.799 6.30353 11.1857 5.9507 10.4482C5.68624 9.89547 5.55935 9.40519 5.51717 8.7731C5.41109 7.18338 6.15659 5.6728 7.49176 4.77209C8.42914 4.13974 9.50062 3.89348 10.6442 4.04758ZM9.29869 4.55975C8.83344 4.63772 8.27982 4.85554 7.83844 5.1343C7.52682 5.33111 7.52738 5.41919 7.8409 5.51176C8.5135 5.71035 9.00803 6.1894 9.22107 6.84878C9.2855 7.04825 9.34911 7.07003 9.5115 6.94821C10.2513 6.39327 10.8931 6.13995 11.7474 6.06579C12.0864 6.03636 12.2425 6.04298 12.8762 6.11377C13.0251 6.13039 13.0451 6.126 13.0751 6.06983C13.1219 5.98248 13.0965 5.94619 12.7648 5.62508C12.1801 5.05906 11.457 4.69005 10.6757 4.55887C10.335 4.50168 9.64249 4.50212 9.29869 4.55975ZM14.6872 4.8192C14.7952 4.87501 14.8066 4.91088 14.8066 5.19451C14.8066 5.48039 14.7517 5.56774 14.5721 5.56774C14.4079 5.56774 14.3285 5.46574 14.3139 5.23599C14.2912 4.88028 14.454 4.69858 14.6872 4.8192ZM6.95637 5.96973C6.91481 5.97768 6.833 6.05834 6.74488 6.17826C6.42213 6.61756 6.14694 7.27741 6.05824 7.82479C6.00029 8.18231 5.99997 8.8266 6.05757 9.16199C6.27428 10.4238 7.0901 11.5252 8.2178 12.0781L8.41483 12.1748L8.48612 12.1078C8.57488 12.0244 8.72531 11.7229 8.76573 11.5475C8.81477 11.3346 8.80739 7.234 8.75764 7.04801C8.62571 6.55483 8.218 6.14332 7.71497 5.99556C7.56525 5.95159 7.12917 5.93673 6.95637 5.96973ZM11.7121 6.56436C11.0162 6.6367 10.3854 6.89717 9.83238 7.34061C9.70027 7.44657 9.53298 7.60251 9.46067 7.68714L9.32917 7.84106L9.31742 9.6576C9.3044 11.6691 9.30804 11.6277 9.10564 12.0658C8.97048 12.3583 8.98159 12.3768 9.33146 12.4411C10.1032 12.5829 11.0494 12.4442 11.7727 12.0832C12.3126 11.8138 12.905 11.3087 13.2515 10.8225C13.4509 10.5428 13.7277 10.0031 13.7857 9.78124C13.8341 9.59645 13.8 9.56447 13.5124 9.52449C13.2315 9.48542 12.9552 9.52484 12.7093 9.63907C12.4797 9.7458 12.3468 9.86478 12.2416 10.0578C12.1229 10.2757 12.1049 10.62 12.1961 10.9263C12.231 11.0435 12.2515 11.165 12.2416 11.1961C12.2151 11.2797 12.0843 11.3716 11.9919 11.3716C11.8731 11.3716 11.7944 11.2902 11.7276 11.0984C11.4876 10.4092 11.6979 9.69755 12.2523 9.32309C12.6768 9.03635 13.2251 8.93918 13.7612 9.05567C13.8538 9.07584 13.8835 9.07024 13.9297 9.02404C13.9779 8.97591 13.9858 8.92421 13.9858 8.65869V8.34942L13.8759 8.30331C13.6799 8.22109 13.2477 8.14802 12.9551 8.14761C12.2049 8.14658 11.579 8.41942 11.0813 8.96445C10.9498 9.10849 10.9 9.14384 10.8288 9.14384C10.7211 9.14384 10.5987 9.05341 10.5742 8.9558C10.5447 8.83844 10.6045 8.73678 10.8431 8.49841C11.2181 8.1238 11.6595 7.8733 12.1926 7.73257C12.5276 7.64414 13.1291 7.62623 13.5109 7.69329C13.8309 7.74949 13.8979 7.73562 13.8979 7.61313C13.8979 7.51376 13.6893 6.92212 13.6385 6.87712C13.5702 6.81677 13.0645 6.66053 12.7769 6.61094C12.4487 6.55434 11.9983 6.53464 11.7121 6.56436ZM4.62599 7.09708C4.70355 7.16995 4.71431 7.30394 4.66046 7.52601C4.61514 7.71293 4.53556 7.79548 4.40069 7.79548C4.29159 7.79548 4.19612 7.72352 4.15652 7.61145C4.12803 7.5309 4.22177 7.17309 4.29068 7.09931C4.37252 7.0117 4.53392 7.01061 4.62599 7.09708ZM15.8054 9.25883C15.9321 9.38552 15.9202 9.48401 15.7541 9.68149C15.5958 9.8697 15.4927 9.9246 15.3726 9.88456C15.2654 9.84883 15.1789 9.70174 15.2047 9.59903C15.2154 9.55635 15.2987 9.44309 15.3899 9.3473C15.5854 9.14188 15.6704 9.12376 15.8054 9.25883ZM10.5143 9.79091C10.5635 9.84529 10.5696 9.90658 10.5723 10.3698C10.5749 10.8343 10.5831 10.9152 10.651 11.1517C10.7181 11.3851 10.7224 11.426 10.6884 11.5075C10.6126 11.689 10.3425 11.7009 10.2534 11.5267C10.1601 11.3442 10.0826 10.9447 10.067 10.5655C10.0486 10.1194 10.0857 9.85798 10.1783 9.78138C10.2655 9.70928 10.445 9.71438 10.5143 9.79091ZM5.37026 11.1934C5.46271 11.2859 5.47036 11.3426 5.42929 11.6316C5.39183 11.8953 5.18594 11.9854 5.01399 11.8135C4.92093 11.7204 4.91005 11.636 4.95555 11.3588C4.99693 11.1066 5.20174 11.0249 5.37026 11.1934ZM13.2763 13.0911C13.4193 13.181 13.4243 13.3762 13.2864 13.4858C13.2184 13.5398 13.1825 13.5453 12.9914 13.5312C12.7421 13.5128 12.6283 13.4498 12.6132 13.3217C12.5856 13.0887 12.6972 13.0057 13.0038 13.0316C13.1167 13.0411 13.2393 13.0679 13.2763 13.0911ZM8.80806 13.7954C8.99457 13.9522 9.04414 14.0541 8.99812 14.1862C8.96095 14.2928 8.89529 14.3321 8.75442 14.3321C8.6654 14.3321 8.62137 14.3054 8.47402 14.1621C8.2878 13.981 8.26751 13.9215 8.34258 13.7764C8.392 13.6808 8.42334 13.6635 8.55252 13.6603C8.62137 13.6585 8.68586 13.6926 8.80806 13.7954Z" fill="#C9C294"/>
</svg>
