<svg width="20" height="20" viewBox="0 0 20 20" fill="none" xmlns="http://www.w3.org/2000/svg">
<path fill-rule="evenodd" clip-rule="evenodd" d="M10.6199 2.5612C10.3317 2.70548 10.3059 3.11245 10.574 3.28743C10.6152 3.31436 10.8174 3.37369 11.0234 3.4193C11.6535 3.5588 11.9645 3.66142 12.5289 3.91617C13.3373 4.28105 14.0522 4.78825 14.7196 5.47043C15.6829 6.45515 16.3146 7.63897 16.6093 9.01155C16.6888 9.38206 16.7085 9.4281 16.8236 9.51343C17.0075 9.6498 17.2365 9.63686 17.3858 9.48161C17.5202 9.3419 17.5292 9.25078 17.4482 8.85425C16.859 5.97192 14.6706 3.58907 11.8381 2.74561C11.5154 2.64954 10.8936 2.50989 10.7887 2.50998C10.7521 2.50998 10.6761 2.53304 10.6199 2.5612ZM4.94559 3.44389C4.5692 3.56387 4.25659 3.82475 3.37558 4.75412C2.74448 5.41991 2.57148 5.75529 2.51284 6.42679C2.4295 7.3813 2.75247 8.58979 3.46471 9.98854C3.7661 10.5805 3.90109 10.8099 4.28265 11.3789C5.72278 13.5264 7.61036 15.2388 9.84081 16.421C11.1048 17.0911 12.1728 17.4351 13.1458 17.4858C13.8337 17.5216 14.4446 17.3299 14.9036 16.9344C14.9574 16.888 15.2949 16.55 15.6536 16.1833C16.2476 15.5762 16.3169 15.4945 16.43 15.2698C16.652 14.8286 16.6526 14.435 16.432 13.984C16.3134 13.7414 16.2831 13.708 15.2201 12.6484C14.1884 11.6198 14.1181 11.5559 13.908 11.4563C13.4581 11.2429 12.9956 11.2636 12.5592 11.5165C12.486 11.5589 12.1527 11.8629 11.8185 12.192L11.2109 12.7904L10.9184 12.636C9.62697 11.9546 7.92919 10.2516 7.29822 9.00456L7.18538 8.7816L7.75014 8.21425C8.35221 7.60941 8.49692 7.42711 8.59413 7.1512C8.72533 6.77882 8.69889 6.42052 8.5124 6.04396C8.41622 5.84975 8.31683 5.74183 7.3174 4.74634C6.17983 3.61322 6.08823 3.53691 5.74246 3.43461C5.53203 3.37235 5.15637 3.37671 4.94559 3.44389ZM5.60406 4.29554C5.78805 4.38168 7.6863 6.28213 7.7675 6.46144C7.92018 6.79864 7.85596 6.90984 7.04901 7.70544C6.6898 8.05962 6.37291 8.39459 6.34482 8.44985C6.26233 8.6121 6.29735 8.90867 6.43289 9.19602C6.81061 9.99665 7.42254 10.8038 8.35511 11.7314C9.12043 12.4927 9.90738 13.0822 10.7031 13.4904C11.0359 13.6612 11.081 13.6765 11.2466 13.6751C11.3625 13.6742 11.4641 13.6544 11.53 13.6199C11.5866 13.5903 11.9303 13.2733 12.2939 12.9154C12.6574 12.5574 12.9999 12.2417 13.055 12.2137C13.2019 12.1391 13.459 12.1633 13.6072 12.2656C13.815 12.4092 15.6013 14.2233 15.672 14.3626C15.7581 14.5324 15.7579 14.724 15.6716 14.8932C15.6081 15.0175 14.6616 16.0066 14.3358 16.289C13.8649 16.6971 13.2032 16.7464 12.1176 16.4541C11.3246 16.2407 10.1004 15.6494 9.09167 14.9927C6.94627 13.5958 4.98419 11.3326 3.99219 9.11046C3.35443 7.68185 3.1972 6.58646 3.53216 5.9053C3.59253 5.78254 3.77191 5.58213 4.2877 5.06111C4.71573 4.62876 5.01263 4.3525 5.09629 4.30874C5.26069 4.22277 5.43881 4.21815 5.60406 4.29554ZM10.4795 5.29048C10.2786 5.41251 10.2076 5.67644 10.3242 5.86714C10.4067 6.0019 10.4786 6.03822 10.8337 6.12457C11.6485 6.32267 12.302 6.69476 12.8587 7.27759C13.3827 7.82618 13.7387 8.4858 13.8953 9.19824C13.956 9.47426 13.9987 9.56684 14.103 9.64857C14.3409 9.83508 14.7228 9.6976 14.7777 9.40568C14.8195 9.18372 14.5988 8.42067 14.3459 7.91265C13.6904 6.59623 12.502 5.64822 11.0747 5.30318C10.7183 5.21704 10.6044 5.21461 10.4795 5.29048Z" fill="#545454"/>
</svg>
