<svg width="30" height="30" viewBox="0 0 30 30" fill="none" xmlns="http://www.w3.org/2000/svg">
<path fill-rule="evenodd" clip-rule="evenodd" d="M2.37896 4.0971C2.1728 4.20389 2 4.48656 2 4.71696C2 4.95468 2.17271 5.23069 2.38936 5.33916C2.5709 5.43 2.67485 5.43561 4.18501 5.43561H5.78799L7.5541 11.5015L9.32017 17.5674L9.17866 17.8425C8.9334 18.3192 8.82822 18.6936 8.82822 19.09C8.82822 20.0859 9.4876 20.9205 10.4734 21.1725C10.6832 21.2261 11.0316 21.247 11.7637 21.25C12.6617 21.2536 12.7409 21.2602 12.5205 21.3127C12.116 21.4091 11.8072 21.5827 11.4936 21.8898C10.6268 22.7386 10.6268 24.0666 11.4936 24.9131C12.3647 25.7641 13.7129 25.7646 14.5754 24.9145C15.2436 24.2559 15.4099 23.2986 15.0034 22.4515C14.749 21.9212 14.0844 21.4079 13.5075 21.296C13.3923 21.2736 14.7893 21.2559 16.7217 21.2553C19.5181 21.2543 20.0949 21.2647 19.8935 21.3127C19.489 21.4091 19.1803 21.5827 18.8666 21.8898C17.9999 22.7386 17.9999 24.0666 18.8666 24.9131C19.7378 25.7641 21.0859 25.7646 21.9484 24.9145C22.8154 24.06 22.8154 22.7427 21.9484 21.8898C21.6364 21.5829 21.3279 21.4093 20.9229 21.3127C20.7099 21.262 20.8662 21.2535 22.0825 21.25C23.3904 21.2462 23.5017 21.2392 23.681 21.1495C23.8976 21.041 24.0703 20.765 24.0703 20.5273C24.0703 20.2895 23.8976 20.0135 23.681 19.9051C23.4908 19.8099 23.4059 19.8086 17.1753 19.8085C11.2625 19.8085 10.8515 19.8032 10.6924 19.7247C10.2973 19.5299 10.1968 19.1084 10.433 18.6359L10.5653 18.3713H17.0268C23.4298 18.3713 23.49 18.3704 23.6831 18.2738C23.8192 18.2057 23.9069 18.1153 23.974 17.9743C24.0964 17.7169 27 7.72983 27 7.56621C27 7.35177 26.8184 7.07336 26.6106 6.96935C26.4195 6.87367 26.3424 6.87291 17.0723 6.87291H7.72661L7.39805 5.73504C7.00757 4.38278 6.94727 4.24313 6.69307 4.10294C6.50649 4.00008 6.47021 3.99835 4.53242 4.00041C2.6667 4.00243 2.55181 4.0076 2.37896 4.0971Z" fill="#EF4023"/>
</svg>
