<svg width="25" height="22" viewBox="0 0 25 22" fill="none" xmlns="http://www.w3.org/2000/svg">
<path fill-rule="evenodd" clip-rule="evenodd" d="M0.378955 0.0970954C0.172803 0.203887 0 0.486556 0 0.716955C0 0.954685 0.172705 1.23069 0.389355 1.33916C0.570898 1.43 0.674854 1.43561 2.18501 1.43561H3.78799L5.5541 7.50154L7.32017 13.5674L7.17866 13.8425C6.9334 14.3192 6.82822 14.6936 6.82822 15.09C6.82822 16.0859 7.4876 16.9205 8.47339 17.1725C8.68315 17.2261 9.03159 17.247 9.76367 17.25C10.6617 17.2536 10.7409 17.2602 10.5205 17.3127C10.116 17.4091 9.80723 17.5827 9.49355 17.8898C8.62681 18.7386 8.62681 20.0666 9.49355 20.9131C10.3647 21.7641 11.7129 21.7646 12.5754 20.9145C13.2436 20.2559 13.4099 19.2986 13.0034 18.4515C12.749 17.9212 12.0844 17.4079 11.5075 17.296C11.3923 17.2736 12.7893 17.2559 14.7217 17.2553C17.5181 17.2543 18.0949 17.2647 17.8935 17.3127C17.489 17.4091 17.1803 17.5827 16.8666 17.8898C15.9999 18.7386 15.9999 20.0666 16.8666 20.9131C17.7378 21.7641 19.0859 21.7646 19.9484 20.9145C20.8154 20.06 20.8154 18.7427 19.9484 17.8898C19.6364 17.5829 19.3279 17.4093 18.9229 17.3127C18.7099 17.262 18.8662 17.2535 20.0825 17.25C21.3904 17.2462 21.5017 17.2392 21.681 17.1495C21.8976 17.041 22.0703 16.765 22.0703 16.5273C22.0703 16.2895 21.8976 16.0135 21.681 15.9051C21.4908 15.8099 21.4059 15.8086 15.1753 15.8085C9.2625 15.8085 8.85151 15.8032 8.69238 15.7247C8.29727 15.5299 8.19683 15.1084 8.43301 14.6359L8.56528 14.3713H15.0268C21.4298 14.3713 21.49 14.3704 21.6831 14.2738C21.8192 14.2057 21.9069 14.1153 21.974 13.9743C22.0964 13.7169 25 3.72983 25 3.56621C25 3.35177 24.8184 3.07336 24.6106 2.96935C24.4195 2.87367 24.3424 2.87291 15.0723 2.87291H5.72661L5.39805 1.73504C5.00757 0.382783 4.94727 0.243125 4.69307 0.10294C4.50649 7.7514e-05 4.47021 -0.00164713 2.53242 0.000413005C0.666699 0.00242523 0.551807 0.00759949 0.378955 0.0970954Z" fill="url(#paint0_linear_910_4644)"/>
<defs>
<linearGradient id="paint0_linear_910_4644" x1="2.8125" y1="2.47815" x2="26.3894" y2="5.96212" gradientUnits="userSpaceOnUse">
<stop stop-color="#F9CA87"/>
<stop offset="1" stop-color="#E79B4D"/>
</linearGradient>
</defs>
</svg>
