<svg width="20" height="20" viewBox="0 0 20 20" fill="none" xmlns="http://www.w3.org/2000/svg">
<path fill-rule="evenodd" clip-rule="evenodd" d="M9.32725 2.5408C7.8778 2.68227 6.53817 3.2146 5.3636 4.11583C4.79161 4.5547 4.0488 5.37949 3.61954 6.0523C3.43416 6.34288 3.07328 7.07921 2.944 7.43061C2.79946 7.82355 2.6454 8.42402 2.56959 8.88995C2.4768 9.46022 2.4768 10.543 2.56959 11.1133C2.70077 11.9194 2.9083 12.5712 3.26351 13.2927C3.65161 14.0809 4.05515 14.6397 4.70136 15.2836C5.3476 15.9274 5.9084 16.3295 6.69954 16.7162C7.4237 17.0701 8.07781 17.2768 8.88695 17.4076C9.45931 17.5 10.546 17.5 11.1184 17.4076C11.9275 17.2768 12.5816 17.0701 13.3058 16.7162C14.0969 16.3295 14.6577 15.9274 15.304 15.2836C15.9502 14.6397 16.3537 14.0809 16.7418 13.2927C16.9996 12.7691 17.1293 12.4259 17.2681 11.8997C17.4531 11.199 17.5 10.8149 17.5 10.0016C17.5 9.18834 17.4531 8.8042 17.2681 8.10345C17.1293 7.57726 16.9996 7.23411 16.7418 6.71052C16.3537 5.92227 15.9502 5.36352 15.304 4.71964C14.6577 4.07578 14.0969 3.67372 13.3058 3.28704C12.5823 2.93344 11.9153 2.72249 11.1331 2.59989C10.7015 2.53225 9.7378 2.50072 9.32725 2.5408ZM10.7011 3.71403C12.1329 3.87115 13.4435 4.50357 14.4822 5.53846C15.7008 6.75268 16.3447 8.29553 16.3447 10.0016C16.3447 11.7077 15.7008 13.2505 14.4822 14.4647C13.2635 15.679 11.715 16.3205 10.0027 16.3205C8.29036 16.3205 6.74184 15.679 5.52318 14.4647C4.30451 13.2505 3.66065 11.7077 3.66065 10.0016C3.66065 8.29553 4.30451 6.75268 5.52318 5.53846C6.54762 4.51775 7.87193 3.87308 9.26864 3.7152C9.59179 3.67869 10.3733 3.67805 10.7011 3.71403ZM9.7497 6.04976C9.60867 6.11356 9.49381 6.25284 9.44604 6.41798C9.42167 6.50229 9.41471 7.04601 9.42117 8.36337C9.42989 10.1442 9.43171 10.1948 9.49073 10.3088C9.53982 10.4036 9.77395 10.594 10.7239 11.312C11.3688 11.7994 11.9554 12.2334 12.0275 12.2765C12.5184 12.5698 13.0987 12.0478 12.8502 11.5364C12.7907 11.4139 12.6726 11.3169 11.6869 10.5802L10.5899 9.76031V8.13007C10.5899 6.98914 10.5799 6.46999 10.5565 6.4004C10.4732 6.15265 10.2579 5.99508 10.0027 5.99508C9.93 5.99508 9.81617 6.01969 9.7497 6.04976Z" fill="#545454"/>
</svg>
