<svg width="15" height="16" viewBox="0 0 15 16" fill="none" xmlns="http://www.w3.org/2000/svg">
<path fill-rule="evenodd" clip-rule="evenodd" d="M0.574072 11.6555C-0.190961 12.4205 -0.190962 13.6609 0.574072 14.4259C1.33911 15.191 2.57947 15.191 3.3445 14.4259L7.43039 10.34L11.6555 14.5651C12.4205 15.3302 13.6609 15.3302 14.4259 14.5651C15.191 13.8001 15.191 12.5598 14.4259 11.7947L10.2008 7.56961L14.4262 3.34421C15.1913 2.57917 15.1913 1.33881 14.4262 0.573776C13.6612 -0.191258 12.4208 -0.191259 11.6558 0.573774L7.43039 4.79918L3.34421 0.712996C2.57917 -0.0520377 1.33881 -0.0520378 0.573776 0.712996C-0.191258 1.47803 -0.191259 2.71839 0.573774 3.48342L4.65996 7.56961L0.574072 11.6555ZM4.65996 7.56961L7.43039 10.34L10.2008 7.56961L7.43039 4.79918L4.65996 7.56961Z" fill="#84191F"/>
<path d="M4.65996 7.56961L7.43039 10.34L10.2008 7.56961L7.43039 4.79918L4.65996 7.56961Z" fill="#84191F"/>
</svg>
