<svg width="19" height="18" viewBox="0 0 19 18" fill="none" xmlns="http://www.w3.org/2000/svg">
<path fill-rule="evenodd" clip-rule="evenodd" d="M11.4426 2.30758C10.7579 2.4752 9.89118 2.68659 9.51657 2.77737L8.83549 2.94244V3.99315V5.04383H6.66774H4.5V6.1277V7.21157H9.33348H14.167V6.1277V5.04383H11.9992H9.83148V4.3861V3.72836L9.92817 3.70167C9.98134 3.68697 10.6833 3.51273 11.4881 3.31444C12.2928 3.11615 12.9574 2.94897 12.9648 2.94294C12.9723 2.9369 12.9405 2.78425 12.8941 2.60377C12.771 2.12432 12.7318 1.99695 12.7085 2.00006C12.697 2.00161 12.1274 2.13999 11.4426 2.30758ZM5.17376 8.0502C5.17376 8.17411 6.32887 16.2007 6.36203 16.3073C6.45671 16.6115 6.71242 16.8579 7.03192 16.9528C7.24067 17.0148 11.3486 17.0162 11.581 16.9543C11.9063 16.8677 12.1705 16.6079 12.2673 16.2797C12.2937 16.1902 13.4344 8.18014 13.4345 8.08306C13.4346 8.03449 13.2184 8.0318 9.30419 8.0318C7.03245 8.0318 5.17376 8.04006 5.17376 8.0502Z" fill="#C9C294"/>
</svg>
