<svg width="25" height="25" viewBox="0 0 25 25" fill="none" xmlns="http://www.w3.org/2000/svg">
<path fill-rule="evenodd" clip-rule="evenodd" d="M10.9051 1.70097C10.9051 2.65855 10.6475 4.22014 10.2909 5.42463C10.0553 6.22034 9.59046 7.36254 9.19552 8.11617C8.88 8.71831 8.00805 10.0941 7.94252 10.0932C7.92544 10.093 7.8303 9.83958 7.73105 9.53017C7.63184 9.22075 7.45316 8.7616 7.33407 8.50985C7.10502 8.02587 6.73188 7.38237 6.69925 7.41506C6.6886 7.42571 6.61691 7.75721 6.53996 8.15171C6.26251 9.57466 6.02999 10.2588 5.29756 11.8066C4.77354 12.914 4.56937 13.4517 4.3942 14.1859C3.85627 16.4403 4.28 18.7378 5.58583 20.6478C6.4245 21.8744 7.47117 22.7695 8.85556 23.4439C9.31367 23.6671 10.3593 24.1006 10.4394 24.1006C10.4499 24.1006 10.363 23.8967 10.2463 23.6475C9.65594 22.3872 9.451 21.0793 9.67351 19.9923C9.72119 19.7595 9.90834 19.1735 10.0893 18.6901C10.5266 17.5226 10.6812 16.876 10.7232 16.0397C10.7418 15.6696 10.7728 15.3669 10.792 15.3669C10.8446 15.3669 11.1554 15.8993 11.3211 16.2732C11.4865 16.6462 11.7394 17.6017 11.8409 18.2369C11.8783 18.4711 11.9267 18.6626 11.9485 18.6626C11.9874 18.6626 12.3208 17.9361 12.5535 17.3443C13.0495 16.0827 13.1192 14.7132 12.7521 13.4457C12.6377 13.0508 12.635 13.0155 12.7228 13.0625C12.776 13.091 12.9882 13.3017 13.1943 13.5309C14.2624 14.7181 15.018 16.1674 15.3543 17.6741C15.7791 19.5775 15.5547 21.2992 14.6068 23.4103C14.4449 23.7708 14.3232 24.0765 14.3363 24.0895C14.3672 24.1204 15.4235 23.5564 15.9753 23.2145C17.6945 22.1492 18.9419 20.7694 19.8034 18.9805C21.1103 16.2666 21.1745 13.16 19.9904 9.93483C19.5339 8.69145 18.5986 7.0367 17.7672 6.00139L17.4143 5.56196L17.3809 6.44083C17.3422 7.45861 17.2532 7.8919 16.953 8.52221C16.5948 9.27442 16.6086 9.27524 16.413 8.48991C15.8034 6.04319 14.3861 3.8157 12.4476 2.25762C11.9144 1.82912 11.0529 1.25 10.9486 1.25C10.9247 1.25 10.9051 1.45291 10.9051 1.70097Z" fill="#4F4F51"/>
</svg>
