<svg width="25" height="25" viewBox="0 0 25 25" fill="none" xmlns="http://www.w3.org/2000/svg">
<path fill-rule="evenodd" clip-rule="evenodd" d="M11.5099 2.10862C8.2491 2.44746 5.3939 4.21937 3.65789 6.98146C1.67545 10.1356 1.55582 14.2234 3.35051 17.4873C4.16744 18.973 5.33368 20.2384 6.77817 21.2063C7.74896 21.8568 9.22245 22.4725 10.3501 22.6987C11.22 22.8733 11.5516 22.9049 12.5077 22.9047C13.4706 22.9045 13.8652 22.8669 14.6759 22.6978C18.262 21.9502 21.2536 19.2675 22.4086 15.7638C22.7815 14.6326 22.9166 13.7637 22.9166 12.496C22.9166 11.2702 22.7882 10.4075 22.4466 9.3383C21.939 7.74946 21.1008 6.37008 19.9121 5.16787C18.2833 3.52043 16.2728 2.50654 13.9541 2.16322C13.4543 2.08919 12.0077 2.05692 11.5099 2.10862ZM13.514 4.77676C14.7218 4.93505 15.7956 5.3383 16.8141 6.01613C17.9711 6.78613 18.8635 7.79949 19.4885 9.05309C20.55 11.1824 20.558 13.7744 19.5095 15.8982C19.3122 16.2979 18.9059 16.978 18.8644 16.978C18.8272 16.978 8.00813 6.14383 8.02745 6.1259C8.12059 6.03972 8.71864 5.6883 9.0728 5.51167C10.4162 4.84175 12.0043 4.57894 13.514 4.77676ZM11.5892 13.4315C14.5687 16.4111 16.9981 18.8572 16.9879 18.8674C16.9776 18.8776 16.8042 18.9895 16.6025 19.1161C14.3491 20.531 11.429 20.6638 9.03197 19.4605C6.38319 18.1309 4.7254 15.45 4.7254 12.496C4.7254 11.0307 5.12853 9.6128 5.8925 8.39099C6.02211 8.18368 6.13803 8.0141 6.15005 8.0141C6.16211 8.0141 8.60973 10.4519 11.5892 13.4315Z" fill="#4F4F51"/>
</svg>
