<svg width="30" height="30" viewBox="0 0 30 30" fill="none" xmlns="http://www.w3.org/2000/svg">
<path fill-rule="evenodd" clip-rule="evenodd" d="M14.9635 4.00138C21.1252 3.99617 21.3754 4.00138 21.7351 4.09521C21.9436 4.15256 22.246 4.24639 22.4024 4.30373C22.5588 4.36108 22.8716 4.52789 23.0905 4.67385C23.3147 4.8146 23.6274 5.07004 23.7942 5.23164C23.9558 5.39845 24.2009 5.71123 24.3416 5.92496C24.4824 6.13869 24.644 6.44625 24.7013 6.60264C24.7639 6.75903 24.8525 7.07181 24.9098 7.29075C25.0036 7.68172 25.0089 7.93194 24.9932 13.2856C24.9828 18.3266 24.9724 18.9052 24.8942 19.1658C24.8473 19.3222 24.7586 19.5829 24.7013 19.7393C24.644 19.8957 24.4824 20.2032 24.3416 20.417C24.2009 20.6307 23.9506 20.9487 23.7786 21.1155C23.6118 21.2875 23.2938 21.5377 23.0801 21.6785C22.8663 21.8192 22.5588 21.9808 22.4024 22.0382C22.246 22.0955 21.9854 22.1841 21.829 22.2311C21.5944 22.2988 21.2034 22.3145 17.9193 22.3457L16.7568 23.8992C16.1156 24.7489 15.5213 25.4996 15.4275 25.5621C15.3076 25.6508 15.1877 25.682 15 25.682C14.8123 25.682 14.6924 25.6508 14.5725 25.5673C14.4787 25.4996 13.8844 24.7489 12.0807 22.3457L10.2666 22.3301C8.79659 22.3145 8.40562 22.2988 8.17104 22.2311C8.01465 22.1841 7.754 22.0955 7.59761 22.0382C7.44123 21.9808 7.12324 21.814 6.89387 21.6628C6.6645 21.5117 6.35172 21.2615 6.19533 21.0999C6.03894 20.9382 5.79915 20.6307 5.6584 20.417C5.51765 20.2032 5.35605 19.8957 5.2987 19.7393C5.23615 19.5829 5.14753 19.2701 5.09019 19.0459C4.99635 18.6602 4.99114 18.41 5.00678 13.0511C5.01721 8.01535 5.02763 7.43671 5.10583 7.17607C5.15274 7.01968 5.24136 6.75903 5.2987 6.60264C5.35605 6.44625 5.52286 6.13348 5.66882 5.91453C5.80957 5.69038 6.06501 5.3776 6.22661 5.21079C6.39342 5.04918 6.7062 4.80418 6.91993 4.66343C7.13366 4.52268 7.44123 4.36108 7.59761 4.30373C7.754 4.24639 8.0355 4.15256 8.22317 4.10043C8.54116 4.01181 8.94777 4.00659 14.9583 4.00138H14.9635ZM7.94688 5.99273C7.78007 6.08656 7.51942 6.28987 7.36824 6.44625C7.22228 6.60264 7.03462 6.85808 6.96163 7.00925C6.88344 7.15522 6.78439 7.41586 6.74269 7.57746C6.67492 7.83811 6.6645 8.62527 6.6645 13.171C6.6645 17.8053 6.67492 18.4986 6.7479 18.7749C6.78961 18.9469 6.90429 19.2232 6.99291 19.3952L7.15973 19.6976C7.52463 19.6454 7.8739 19.5516 8.17625 19.4473C8.4786 19.3483 9.05203 19.1033 9.45342 18.9052C9.85482 18.7123 10.5325 18.3161 10.9652 18.0294C11.3926 17.7427 12.0495 17.2631 12.4248 16.966C12.7949 16.6636 13.4882 16.0746 13.9626 15.6575C14.437 15.2353 15.0209 14.714 15.2659 14.495C15.5109 14.2761 15.9175 13.9268 16.1781 13.7183C16.4336 13.5098 16.9392 13.1345 17.2989 12.879C17.7055 12.5923 18.2112 12.29 18.6282 12.0919C19.0035 11.9146 19.5509 11.6853 19.8533 11.581C20.1556 11.4767 20.6352 11.336 20.9219 11.2682C21.2086 11.2005 21.6048 11.1223 21.8081 11.0858C22.0114 11.0545 22.4285 11.0128 22.7464 10.9919L23.3199 10.9555C23.3407 8.43239 23.3251 7.83811 23.2886 7.64523C23.2521 7.48884 23.1478 7.20734 23.054 7.01968C22.9497 6.81116 22.7673 6.56615 22.5796 6.38891C22.4128 6.22731 22.1522 6.03443 22.001 5.96145C21.855 5.88326 21.5944 5.78421 21.4276 5.74251C21.1721 5.67474 20.2964 5.66431 14.9791 5.66952C9.69843 5.66952 8.78617 5.67995 8.54116 5.74772C8.38477 5.78942 8.11891 5.90411 7.94688 5.99273V5.99273ZM21.8863 12.78C21.6413 12.8217 21.219 12.9207 20.948 12.9937C20.6769 13.0667 20.1973 13.2335 19.8793 13.3586C19.5665 13.4889 19.1651 13.6714 18.9931 13.7704C18.8211 13.8643 18.3988 14.1458 18.0548 14.396C17.7107 14.6462 17.1738 15.0685 16.8558 15.3343C16.543 15.6002 16.0582 16.0224 15.7872 16.2727C15.5161 16.5229 14.9896 16.992 14.6142 17.3153C14.2441 17.6385 13.6655 18.118 13.3371 18.3787C13.0087 18.6446 12.503 19.0199 12.2163 19.2128C11.9296 19.4109 11.4708 19.7028 11.1998 19.8696C10.9287 20.0364 10.496 20.2762 10.2354 20.4117L9.7662 20.6515C12.6073 20.6985 12.8106 20.7141 12.9357 20.7975C13.0139 20.8444 13.5039 21.4595 14.0304 22.1633C14.5517 22.8618 14.9896 23.4353 15.0052 23.4353C15.0209 23.4353 15.464 22.8566 15.9957 22.1477C16.7046 21.1989 17.007 20.834 17.1425 20.7714C17.3041 20.688 17.5179 20.6776 19.2277 20.6776C20.7551 20.6776 21.1878 20.662 21.4328 20.5994C21.5944 20.5577 21.855 20.4587 22.0062 20.3805C22.1522 20.3075 22.4076 20.1198 22.564 19.9739C22.7204 19.8227 22.9237 19.562 23.0175 19.3952C23.1061 19.2232 23.2208 18.9469 23.2625 18.7749C23.3355 18.509 23.3459 18.0294 23.3459 15.5585V12.6497C22.7986 12.6601 22.5744 12.6757 22.4858 12.6862C22.4024 12.6966 22.1313 12.7383 21.8863 12.78ZM10.8088 7.33767C10.9808 7.33246 11.2623 7.36895 11.4343 7.41586C11.6064 7.45757 11.8827 7.57225 12.0547 7.66087C12.2215 7.7547 12.4821 7.95801 12.6333 8.1144C12.7793 8.27079 12.967 8.52622 13.0399 8.6774C13.1181 8.82336 13.2172 9.08401 13.2589 9.25082C13.3006 9.41242 13.3371 9.67828 13.3371 9.83467C13.3371 9.99106 13.3006 10.2569 13.2589 10.4237C13.2172 10.5853 13.1181 10.846 13.0399 10.9972C12.967 11.1431 12.7793 11.3986 12.6333 11.5549C12.4821 11.7113 12.2215 11.9146 12.0547 12.0085C11.8827 12.0971 11.6064 12.2118 11.4343 12.2535C11.2623 12.3004 10.9912 12.3369 10.8349 12.3369C10.6785 12.3369 10.4126 12.3004 10.251 12.2587C10.0842 12.217 9.82354 12.1179 9.67758 12.0397C9.5264 11.9668 9.27097 11.7791 9.11458 11.6331C8.95819 11.482 8.75489 11.2213 8.66106 11.0545C8.57244 10.8825 8.45775 10.6062 8.41605 10.4342C8.36913 10.2621 8.33264 9.99106 8.33264 9.83467C8.33264 9.67828 8.36913 9.41242 8.41083 9.25082C8.45254 9.08401 8.55158 8.82336 8.62978 8.6774C8.70276 8.52622 8.89043 8.27079 9.03639 8.1144C9.18756 7.95801 9.44821 7.7547 9.61502 7.66087C9.78705 7.57225 10.0529 7.45757 10.2093 7.41586C10.3657 7.37416 10.6368 7.33767 10.8088 7.33767V7.33767ZM10.1728 9.30816C10.1103 9.39678 10.0373 9.54796 10.0216 9.64179C10.006 9.73041 10.006 9.90244 10.0268 10.0171C10.0512 10.1561 10.1276 10.2882 10.2562 10.4133C10.3657 10.5228 10.5221 10.6218 10.6263 10.6427C10.7254 10.6635 10.9026 10.6635 11.0173 10.6427C11.1563 10.6184 11.2884 10.5419 11.4135 10.4133C11.523 10.3038 11.622 10.1474 11.6429 10.0432C11.6637 9.94414 11.6637 9.77212 11.6481 9.66786C11.6324 9.55838 11.5542 9.39678 11.476 9.30295C11.3926 9.21433 11.2519 9.11007 11.1633 9.06837C11.0694 9.03188 10.913 9.0006 10.8244 9.0006C10.7306 9.00581 10.5742 9.03709 10.4752 9.07358C10.3761 9.11007 10.2406 9.21433 10.1728 9.30816V9.30816Z" fill="white"/>
</svg>
