<svg width="19" height="18" viewBox="0 0 19 18" fill="none" xmlns="http://www.w3.org/2000/svg">
<path fill-rule="evenodd" clip-rule="evenodd" d="M6.48559 5.01445C6.4372 5.02011 6.27225 5.03879 6.11903 5.05597C5.77725 5.0943 5.19694 5.20837 4.8434 5.3067C4.6213 5.36849 4.56429 5.39725 4.48359 5.48834C4.17315 5.83871 3.94542 6.2584 3.82812 6.69625C3.7324 7.05366 3.73199 7.63333 3.82727 7.98654C4.04568 8.79643 4.58957 9.46739 5.29999 9.80336C5.47497 9.88614 5.47805 9.88647 5.65845 9.84371C5.92481 9.78057 6.72048 9.63612 6.93279 9.61234C7.03361 9.60105 7.11607 9.58662 7.11607 9.58026C7.11607 9.57389 7.0456 9.47618 6.95948 9.36314C6.16909 8.32571 6.01715 6.78675 6.58708 5.59109C6.66541 5.42681 6.77027 5.23309 6.82013 5.1606C6.87001 5.08814 6.9108 5.02131 6.9108 5.01213C6.9108 4.99489 6.64089 4.99635 6.48559 5.01445ZM7.90646 5.20444C7.57151 5.54467 7.32566 5.98815 7.20141 6.47632C7.10763 6.84475 7.10666 7.44585 7.19921 7.82159C7.33032 8.35369 7.57817 8.79588 7.9428 9.14804C8.29405 9.4873 8.17825 9.46008 9.28693 9.46401C9.81873 9.46589 10.2498 9.46085 10.245 9.45278C10.1663 9.32261 10.0016 8.92898 9.95286 8.75479C9.89902 8.56251 9.88973 8.45298 9.89014 8.01587C9.89058 7.54242 9.89674 7.48274 9.96972 7.24515C10.1223 6.74851 10.3706 6.34166 10.7404 5.98263L10.9392 5.78962L10.7505 5.70499C10.0499 5.39086 9.1267 5.14691 8.23845 5.04116L8.0852 5.02292L7.90646 5.20444ZM14.286 6.24421C14.0763 6.38066 13.8469 6.53256 13.7762 6.5818L13.6476 6.6713L13.764 6.79376C13.8281 6.86109 13.9304 6.97886 13.9915 7.05548C14.0525 7.13211 14.119 7.19477 14.1394 7.19477C14.1596 7.19477 14.2507 7.1607 14.3416 7.11906C14.5374 7.02944 14.9853 6.93179 15.2029 6.93123C15.3566 6.93085 15.3573 6.93041 15.338 6.85021C15.2867 6.63699 15.0631 6.20234 14.9233 6.04378C14.8287 5.93654 14.6934 5.97909 14.286 6.24421ZM2.6836 6.2821C2.03371 6.7127 1.70169 7.11871 1.55363 7.66397C1.48102 7.9313 1.48237 8.49034 1.55627 8.74899C1.80805 9.63052 2.47255 10.2177 3.35059 10.3345C3.60534 10.3684 3.9426 10.3426 4.18213 10.2709L4.2913 10.2381L3.96439 9.91145C3.61985 9.56712 3.44458 9.32812 3.24878 8.93567C2.9862 8.40935 2.88395 7.96807 2.88283 7.35606C2.88198 6.88842 2.92509 6.60403 3.05509 6.21975C3.09195 6.11087 3.11183 6.02178 3.09928 6.02178C3.08676 6.02178 2.8997 6.13894 2.6836 6.2821ZM11.5999 6.41503C11.2209 6.66933 10.9101 7.11246 10.7966 7.56016C10.7398 7.78438 10.7405 8.24038 10.798 8.48506C10.8627 8.76051 11.0165 9.05015 11.2513 9.3388L11.4567 9.59134L11.7863 9.6414C12.3054 9.72022 12.8396 9.82791 13.3395 9.9545C13.8716 10.0893 13.9658 10.0838 14.1192 9.90908C14.2777 9.72864 14.2694 9.55935 14.075 9.00071C13.7835 8.16299 13.2256 7.38638 12.4532 6.74323C12.2032 6.53514 11.8573 6.28571 11.8187 6.28571C11.8044 6.28571 11.706 6.34392 11.5999 6.41503ZM15.0191 7.83051C14.8845 7.86056 14.6646 7.92907 14.6301 7.95165C14.6018 7.97012 14.6239 8.0422 14.7221 8.25249C14.877 8.58421 15.0445 9.101 15.0955 9.40472C15.1244 9.57653 15.1251 9.66638 15.0986 9.80876C15.0799 9.90949 15.0712 9.99857 15.0794 10.0068C15.1054 10.0327 15.3643 9.95095 15.5616 9.85439C15.8083 9.73365 16.1589 9.38926 16.2894 9.13942C16.4261 8.87772 16.5 8.55846 16.5 8.22979C16.5 7.97666 16.4942 7.94877 16.428 7.88259L16.356 7.81059L15.7169 7.814C15.3654 7.81587 15.0514 7.82329 15.0191 7.83051ZM8.20109 10.3629C6.98602 10.4434 5.81827 10.6635 4.71572 11.0198C4.17093 11.1959 4.02263 11.2226 3.5971 11.2216C3.20139 11.2206 2.89676 11.1692 2.57988 11.05C2.47809 11.0117 2.39478 10.9842 2.39478 10.989C2.39478 11.0416 2.53798 11.387 2.6322 11.5618C2.97368 12.1951 3.53555 12.648 4.26286 12.8762L4.52083 12.9571H8.08379H11.6467L11.9043 12.8763C12.7363 12.6153 13.3644 12.0514 13.6763 11.2856C13.8005 10.9805 13.7996 10.9557 13.6628 10.9317C13.6024 10.9212 13.3483 10.862 13.0983 10.8002C11.8514 10.4921 10.8462 10.3672 9.46205 10.3484C8.98626 10.342 8.41882 10.3485 8.20109 10.3629Z" fill="#C9C294"/>
</svg>
