<svg width="19" height="18" viewBox="0 0 19 18" fill="none" xmlns="http://www.w3.org/2000/svg">
<path fill-rule="evenodd" clip-rule="evenodd" d="M7.49128 3.01136C6.58885 3.08757 5.72062 3.27424 4.97144 3.55315C4.12088 3.8698 3.25121 4.42648 3.03753 4.79107C2.9372 4.96227 2.83899 5.39307 2.83652 5.6726C2.83389 5.97369 2.93225 6.20777 3.14491 6.40672C3.37975 6.62639 3.47899 6.65592 4.13439 6.70134C4.76414 6.74499 4.81811 6.751 5.3084 6.8321C7.07586 7.12444 8.65436 7.89422 9.84987 9.04684C10.0416 9.23172 10.3079 9.51725 10.4417 9.68137C10.8533 10.1866 10.9822 10.2843 11.319 10.3465C11.4962 10.3793 12.0111 10.3245 12.8533 10.1834C14.7687 9.86241 16.5478 9.2297 17.1333 8.66124C17.3474 8.45341 17.4164 8.29493 17.4649 7.89931C17.54 7.28644 17.491 6.59738 17.3521 6.31525C17.2077 6.02189 16.6223 5.4856 15.9737 5.05257C14.6684 4.18089 12.7887 3.52195 10.7679 3.2276C9.70076 3.07216 8.05637 2.96363 7.49128 3.01136ZM6.02626 4.70782C7.33932 4.94651 8.64665 5.4839 9.74729 6.23736C10.218 6.55961 10.5527 6.83419 11.0152 7.27765C11.2533 7.50593 11.482 7.69858 11.5592 7.73596C11.7934 7.8493 12.0153 7.86767 12.6998 7.83043C13.7246 7.77464 14.526 7.63189 15.3711 7.35447C15.6117 7.27551 15.826 7.21087 15.8472 7.21087C15.8685 7.21087 15.8858 7.23537 15.8858 7.26528C15.8858 7.30912 15.8073 7.34615 15.483 7.45538C14.5319 7.77561 13.6193 7.93178 12.5121 7.96375C11.6179 7.98956 11.5478 7.96398 10.9544 7.39473C9.73211 6.2223 8.36721 5.44306 6.78807 5.01612C6.37452 4.90431 5.61631 4.75019 5.47491 4.7492C5.38159 4.74852 5.32624 4.70454 5.34786 4.64823C5.36937 4.59212 5.40875 4.59557 6.02626 4.70782ZM3.07907 6.82583C2.60379 7.35673 2.41146 7.99372 2.53789 8.61832C2.59524 8.90148 2.71326 9.22305 2.83529 9.42862L2.91898 9.56956L2.94901 9.33744C2.96823 9.18871 2.9934 9.10057 3.01904 9.09213C3.08769 9.06951 3.10008 9.13576 3.07403 9.38608C3.04186 9.69534 3.07002 10.1157 3.14166 10.3958C3.22745 10.7312 3.36258 10.9784 3.57967 11.1971C3.91868 11.5385 4.36129 11.7116 4.97786 11.7439L5.30658 11.7611L5.23022 11.5686C5.15723 11.3846 5.15366 11.2836 5.2202 11.2836C5.23717 11.2836 5.26614 11.3199 5.28457 11.3642C5.40764 11.6601 5.58329 12.0067 5.691 12.1662C6.09045 12.7579 6.77119 13.1882 7.48395 13.2995C7.5766 13.3139 7.65243 13.3192 7.65243 13.3112C7.65243 13.3031 7.5887 13.1964 7.51082 13.0739C7.20062 12.5861 7.09909 12.3384 7.20932 12.3384C7.22447 12.3384 7.31234 12.4736 7.40461 12.6388C7.92967 13.5789 8.48538 14.0882 9.17429 14.2606C9.38362 14.313 9.91099 14.3087 10.0067 14.2538C10.0553 14.2259 10.0473 14.2147 9.9303 14.1461C9.75576 14.0438 9.49836 13.8387 9.49836 13.8019C9.49836 13.7234 9.59786 13.7557 9.79822 13.8995C10.6857 14.5362 11.7134 14.6394 12.6756 14.1885C12.9249 14.0717 13.3074 13.8373 13.3074 13.8014C13.3074 13.791 13.2382 13.7706 13.1536 13.7563C13.028 13.735 12.9998 13.7195 12.9998 13.6716C12.9998 13.6011 13.0205 13.6012 13.3953 13.6731C13.8095 13.7525 14.6171 13.7476 14.9229 13.6638C15.2335 13.5786 15.5434 13.4154 15.7336 13.2368C15.8957 13.0845 16.0644 12.8511 16.1044 12.7238C16.1226 12.666 16.1174 12.6575 16.0719 12.6709C15.8964 12.7227 15.7982 12.7249 15.78 12.6773C15.7542 12.6102 15.7657 12.6037 15.9928 12.5564C16.5656 12.4371 16.9145 12.0863 17.0454 11.4977C17.1218 11.1542 17.071 10.3329 16.9542 10.0254C16.9439 9.99807 16.9016 10.0444 16.834 10.1573C16.7085 10.3668 16.6516 10.4339 16.5992 10.4339C16.5324 10.4339 16.5551 10.3444 16.6635 10.1812C16.9043 9.81835 17.0579 9.39015 17.0579 9.08138V8.91317L16.8308 9.04821C15.9829 9.55244 14.674 9.9809 13.094 10.2714C12.4096 10.3972 11.6099 10.4969 11.3634 10.487L11.1334 10.4779L11.0178 10.6683C10.7995 11.0281 10.75 11.4031 10.8766 11.7378C10.9611 11.9609 11.2664 12.2748 11.5714 12.452C11.7775 12.5718 11.8436 12.6607 11.7265 12.6607C11.6614 12.6607 11.4123 12.5202 11.2505 12.3923L11.1422 12.3066L11.0986 12.3738C10.9933 12.5363 10.9048 12.887 10.9048 13.142C10.9048 13.3718 10.8999 13.3933 10.8475 13.3933C10.7178 13.3933 10.7343 12.9575 10.8792 12.5572C10.9285 12.4208 10.9808 12.3018 10.9954 12.2928C11.0411 12.2646 11.0245 12.174 10.9636 12.1189C10.8102 11.9801 10.6704 11.6171 10.6704 11.3577C10.6704 11.0944 10.775 10.7887 10.9624 10.5041L11.0223 10.4131L10.8613 10.3062C10.7727 10.2474 10.6177 10.0976 10.5168 9.97326C9.94167 9.26448 9.39979 8.76212 8.72189 8.30926C7.3778 7.41135 5.85605 6.92771 4.07423 6.83216C3.66206 6.81004 3.55951 6.79486 3.40712 6.7333L3.22704 6.66055L3.07907 6.82583ZM6.46017 8.74144C6.67702 8.84247 6.90849 9.07822 7.03908 9.33111C7.11052 9.46947 7.15224 9.52112 7.18304 9.50943C7.20692 9.50038 7.32848 9.47852 7.45319 9.46088C8.044 9.37734 8.55503 9.62303 8.78011 10.0988C8.92292 10.4007 8.99497 10.9223 8.94985 11.3276C8.93107 11.4961 8.91771 11.5327 8.87484 11.5327C8.8272 11.5327 8.82193 11.4894 8.8141 11.0346C8.80432 10.465 8.76001 10.2753 8.57393 10.005C8.35939 9.69355 8.05789 9.56797 7.58126 9.59162C7.16774 9.61213 7.18034 9.60161 7.26405 9.85626C7.30229 9.97252 7.34138 10.1317 7.35093 10.2098C7.36646 10.3369 7.36256 10.3509 7.31445 10.3417C7.27372 10.3338 7.24029 10.2599 7.17726 10.0383C7.05699 9.61547 6.89449 9.29231 6.69905 9.08745C6.47748 8.85515 6.30596 8.78076 5.99696 8.78302C5.71476 8.78507 5.47248 8.86851 5.15788 9.07203C4.96432 9.19723 4.8482 9.2241 4.87557 9.13734C4.89913 9.06263 5.30456 8.81692 5.54418 8.73218C5.87272 8.61597 6.1979 8.61928 6.46017 8.74144ZM14.9418 10.7132C15.1288 10.7977 15.4075 11.0569 15.5651 11.2929C15.6925 11.4837 15.7081 11.5473 15.6273 11.5473C15.594 11.5473 15.5209 11.4698 15.4333 11.3416C15.1781 10.968 14.8701 10.7571 14.5793 10.7565C14.1909 10.7558 13.7024 11.2021 13.3691 11.8623C13.3085 11.9823 13.2433 12.0197 13.2044 11.9567C13.1593 11.8838 13.5428 11.284 13.8055 11.0166C14.1825 10.6329 14.5481 10.5353 14.9418 10.7132Z" fill="#C9C294"/>
</svg>
