<svg width="19" height="18" viewBox="0 0 19 18" fill="none" xmlns="http://www.w3.org/2000/svg">
<path fill-rule="evenodd" clip-rule="evenodd" d="M6.1167 3.01448C5.42481 3.09721 5.10224 3.18271 4.66929 3.39807C4.26928 3.59705 3.9984 3.84153 3.85935 4.12908C3.77481 4.30391 3.77381 4.31209 3.76494 4.89843L3.75598 5.49107L3.53546 5.5053C3.34057 5.5179 3.30502 5.52951 3.22967 5.60532C3.14781 5.68761 3.13133 5.75667 2.82219 7.3097C2.64499 8.19993 2.5 8.95824 2.5 8.99485C2.5 9.03146 2.53842 9.1047 2.58537 9.1576L2.67076 9.25379L3.20767 9.26852L3.74461 9.28324L3.75926 9.82016L3.7739 10.3571L3.85505 10.4387L3.9362 10.5202L4.61646 10.5296C5.64469 10.5438 5.61417 10.566 5.62855 9.7913L5.63824 9.26852H9.99697H14.3557L14.3654 9.7913C14.3798 10.566 14.3493 10.5438 15.3775 10.5296L16.0577 10.5202L16.1389 10.4387L16.22 10.3571L16.2347 9.82016L16.2493 9.28324L16.7863 9.26852L17.3232 9.25379L17.4086 9.1576C17.4555 9.1047 17.4939 9.03146 17.4939 8.99485C17.4939 8.95824 17.3489 8.19993 17.1717 7.3097C16.8626 5.75667 16.8461 5.68761 16.7643 5.60532C16.6889 5.52951 16.6534 5.5179 16.4585 5.5053L16.238 5.49107L16.229 4.89843C16.2201 4.31209 16.2191 4.30391 16.1346 4.12908C15.8896 3.62241 15.1857 3.21794 14.2872 3.06761C13.4429 2.92636 12.4756 3.01159 11.7559 3.29074C11.3126 3.46269 10.8807 3.81164 10.7353 4.11538C10.639 4.31663 10.612 4.51735 10.612 5.03138V5.49861H9.99697H9.38198V5.03138C9.38198 4.32644 9.3254 4.12248 9.04673 3.82265C8.65935 3.40587 7.96151 3.11721 7.12086 3.026C6.85427 2.9971 6.31405 2.99089 6.1167 3.01448ZM6.88634 3.64311C7.41904 3.68479 7.94863 3.82248 8.25603 3.99922C8.88557 4.36119 8.89793 4.7426 8.29205 5.1119C7.55782 5.55946 6.05386 5.62929 5.1377 5.2584C4.96132 5.18698 4.69119 5.0322 4.58855 4.94373C4.48072 4.85078 4.37424 4.67023 4.37424 4.58032C4.37424 4.14598 5.19141 3.72484 6.18991 3.64459C6.34293 3.6323 6.4813 3.62061 6.49741 3.61861C6.51351 3.61663 6.68855 3.62765 6.88634 3.64311ZM13.7455 3.64167C14.8054 3.7254 15.6197 4.13323 15.6197 4.58032C15.6197 4.67023 15.5132 4.85078 15.4054 4.94373C15.1249 5.18547 14.6569 5.3672 14.0898 5.45464C12.7684 5.6583 11.2556 5.17623 11.2563 4.55169C11.2568 4.14307 12.0983 3.71922 13.0568 3.64482C13.2181 3.6323 13.3633 3.62046 13.3794 3.61855C13.3955 3.61663 13.5602 3.62703 13.7455 3.64167ZM5.72361 4.35224C5.60026 4.47629 5.59847 4.63357 5.71889 4.76919L5.80429 4.86539L6.48763 4.87475C6.91741 4.88064 7.21053 4.87237 7.27756 4.85246C7.49614 4.78751 7.55855 4.51434 7.39286 4.3477L7.30726 4.26161H6.56049H5.81372L5.72361 4.35224ZM12.6011 4.3477C12.4354 4.51434 12.4978 4.78751 12.7164 4.85246C12.7834 4.87237 13.0765 4.88064 13.5063 4.87475L14.1896 4.86539L14.275 4.76919C14.3955 4.63357 14.3937 4.47629 14.2703 4.35224L14.1802 4.26161H13.4335H12.6867L12.6011 4.3477ZM3.75926 6.38292C3.75926 6.80259 3.92018 7.11137 4.28305 7.3881C5.29567 8.16031 7.37912 8.23662 8.60619 7.54649C8.85354 7.40739 9.17371 7.09178 9.26159 6.90043C9.33469 6.74133 9.38154 6.50197 9.38181 6.28646L9.38198 6.14656H9.99697H10.612L10.6121 6.28646C10.6124 6.50197 10.6593 6.74133 10.7323 6.90043C10.8169 7.08465 11.1286 7.39443 11.3746 7.53875C12.3833 8.13071 14.1711 8.18069 15.2829 7.64805C15.928 7.33903 16.2347 6.9305 16.2347 6.38048C16.2347 6.206 16.2443 6.14489 16.2703 6.1536C16.299 6.16321 16.7837 8.4589 16.7897 8.6132C16.7908 8.64257 15.4135 8.65002 9.99697 8.65002C6.2602 8.65002 3.20281 8.64006 3.20278 8.62793C3.20272 8.59721 3.67143 6.22874 3.68657 6.18338C3.69331 6.16315 3.71243 6.14656 3.72906 6.14656C3.74728 6.14656 3.75926 6.24019 3.75926 6.38292ZM9.95304 11.3193C3.90064 11.4515 2.76354 11.4829 2.68435 11.5198C2.4853 11.6127 2.4496 11.876 2.61685 12.0175C2.69316 12.0821 2.73829 12.0919 3.03316 12.1073C3.21508 12.1168 6.48376 12.1915 10.2969 12.2732C16.5924 12.408 17.238 12.4175 17.3175 12.3761C17.4621 12.3009 17.4939 12.1999 17.4939 11.8167C17.4939 11.3556 17.4316 11.2194 17.2011 11.1762C17.1608 11.1687 13.8992 11.2331 9.95304 11.3193ZM2.61579 12.5009C2.5514 12.5588 2.52094 12.6174 2.50908 12.7063C2.49406 12.819 2.5019 12.8401 2.59301 12.9317C2.6746 13.0137 2.72344 13.0362 2.85297 13.0511C3.49581 13.1253 17.1433 14.3029 17.2041 14.2895C17.3774 14.2512 17.4408 14.1007 17.4797 13.6349L17.5 13.3921L17.4005 13.2919C17.3103 13.2013 17.2804 13.1901 17.0826 13.1734C16.8715 13.1555 2.89749 12.4199 2.76936 12.4199C2.73446 12.4199 2.66537 12.4564 2.61579 12.5009Z" fill="#C9C294"/>
</svg>
