<svg width="19" height="18" viewBox="0 0 19 18" fill="none" xmlns="http://www.w3.org/2000/svg">
<path fill-rule="evenodd" clip-rule="evenodd" d="M9.19463 1.01103C6.84352 1.18063 4.7956 1.96955 3.58852 3.17076C3.10805 3.64888 2.77896 4.17818 2.59245 4.77274L2.5 5.06744V9.04395V13.0205L2.59245 13.3152C3.02966 14.7089 4.33711 15.8356 6.29195 16.5032C8.39265 17.2206 11.0257 17.2877 13.1571 16.6781C15.4306 16.0279 16.9283 14.843 17.4075 13.3154L17.5 13.0205V9.04395V5.06744L17.4075 4.77254C17.0508 3.6355 16.1519 2.70325 14.7483 2.01482C13.791 1.54529 12.7786 1.25217 11.5436 1.087C11.0716 1.02385 9.65292 0.977978 9.19463 1.01103ZM11.4094 1.61117C13.4201 1.87244 15.017 2.54479 16.0256 3.55479C16.555 4.08492 16.8076 4.51583 16.9265 5.09143C16.9941 5.41882 16.9941 5.68922 16.9265 6.0166C16.8076 6.59221 16.555 7.02311 16.0256 7.55325C15.0142 8.56607 13.4499 9.22382 11.3926 9.50133C10.7774 9.58432 9.22262 9.58432 8.60738 9.50133C6.56315 9.22556 4.97943 8.55966 3.97443 7.55325C3.44503 7.02311 3.19242 6.59221 3.07352 6.0166C3.00591 5.68922 3.00591 5.41882 3.07352 5.09143C3.19242 4.51583 3.44503 4.08492 3.97443 3.55479C5.06235 2.46536 6.90997 1.74264 9.07295 1.56046C9.57282 1.51835 10.9201 1.54761 11.4094 1.61117ZM9.27852 2.89056C6.63044 3.11073 4.78084 4.28855 4.91007 5.67241C4.96396 6.24942 5.32158 6.76996 5.9601 7.20083L6.21674 7.37402L6.7745 7.19003C8.02856 6.77633 8.93896 6.24617 9.69856 5.48717C10.3844 4.80187 10.8448 3.99016 11.019 3.15905C11.0603 2.96207 11.0595 2.93818 11.0106 2.91909C10.9463 2.89392 9.5205 2.87043 9.27852 2.89056ZM11.5614 3.15935C11.492 3.62244 11.0967 4.47798 10.6549 5.12127C10.4739 5.38496 10.4178 5.49093 10.4468 5.51435C10.4687 5.53197 10.6376 5.62153 10.8221 5.71338C11.4267 6.01419 12.0508 6.21274 12.8188 6.34862C13.2365 6.42251 13.4116 6.43529 14.0565 6.43898L14.8076 6.44328L14.8701 6.35939C14.9696 6.2259 15.0741 5.89204 15.0924 5.64912C15.1639 4.70207 14.3084 3.82419 12.8137 3.31066C12.4822 3.19674 11.7307 3.00368 11.6189 3.00368C11.6001 3.00368 11.5743 3.07375 11.5614 3.15935ZM9.74832 6.17982C9.23023 6.66905 8.22691 7.25573 7.40232 7.5515C6.92654 7.72217 6.93181 7.71392 7.2351 7.81328C9.51211 8.55922 12.458 8.28828 14.0583 7.18573L14.308 7.01375L13.8738 6.9914C12.5625 6.92392 11.3185 6.59952 10.3472 6.0718C10.1967 5.99006 10.0608 5.92385 10.0452 5.92472C10.0296 5.9256 9.89597 6.04036 9.74832 6.17982Z" fill="#C9C294"/>
</svg>
