<svg width="25" height="25" viewBox="0 0 25 25" fill="none" xmlns="http://www.w3.org/2000/svg">
<path fill-rule="evenodd" clip-rule="evenodd" d="M16.9248 2.10389C15.6022 2.20935 14.7123 2.38004 13.7604 2.71083C11.3346 3.55374 9.45695 5.58185 8.78116 8.08896C8.4237 9.41527 8.37633 10.9698 8.64507 12.5584C8.73871 13.1122 8.96152 14.0823 9.04724 14.3096C9.076 14.3859 9.13853 14.3187 9.47312 13.8522C9.94963 13.1879 10.8325 12.0795 11.4256 11.4008C12.0104 10.7316 13.8299 8.91513 14.4958 8.33561C16.0037 7.02342 18.1839 5.43077 18.4723 5.43077C18.7724 5.43077 18.9393 5.83438 18.7223 6.03531C18.6684 6.08525 18.3162 6.33813 17.9397 6.59724C15.1083 8.54582 12.5108 11.0422 10.4464 13.7986C9.86701 14.5722 8.79846 16.1255 8.51015 16.6131C8.09151 17.3212 7.5549 18.4827 7.33981 19.146C7.22259 19.5077 6.93232 19.6592 6.71256 19.4734C6.66293 19.4315 6.51651 19.1584 6.38713 18.8667C5.70947 17.3382 4.44343 15.4529 3.80686 15.0243C3.4707 14.798 3.33814 14.831 2.72001 15.2953C2.11063 15.753 2.00399 15.9272 2.1301 16.2588C2.1539 16.3214 2.41688 16.626 2.71447 16.9358C4.12523 18.4041 5.30917 20.2027 6.07024 22.0336C6.30107 22.5889 6.38478 22.7046 6.64062 22.8227C6.86129 22.9246 7.02945 22.9245 7.25414 22.8225C7.48409 22.718 7.60694 22.5576 7.68825 22.2555C8.1265 20.6274 8.79977 19.2356 10.0639 17.3446C10.6428 16.4786 11.187 15.7453 11.2964 15.6838C11.3481 15.6546 11.5474 15.6299 11.7391 15.6289C12.6328 15.6238 13.8746 15.4555 14.7895 15.2155C17.0757 14.6159 18.4331 13.5116 19.2341 11.5999C19.4982 10.9695 19.7568 10.1572 20.3016 8.24667C20.5629 7.33037 20.8538 6.36606 20.948 6.10377C21.401 4.84331 21.9462 3.87874 22.6591 3.07662C22.8007 2.91725 22.9166 2.76495 22.9166 2.7382C22.9166 2.59557 20.7221 2.23153 19.1908 2.1201C18.6323 2.07945 17.3465 2.07025 16.9248 2.10389Z" fill="#4F4F51"/>
</svg>
